%TF.GenerationSoftware,KiCad,Pcbnew,10.0.1*%
%TF.CreationDate,2026-05-08T17:09:40+02:00*%
%TF.ProjectId,usb-instrument,7573622d-696e-4737-9472-756d656e742e,0.1*%
%TF.SameCoordinates,Original*%
%TF.FileFunction,Copper,L2,Inr*%
%TF.FilePolarity,Positive*%
%FSLAX46Y46*%
G04 Gerber Fmt 4.6, Leading zero omitted, Abs format (unit mm)*
G04 Created by KiCad (PCBNEW 10.0.1) date 2026-05-08 17:09:40*
%MOMM*%
%LPD*%
G01*
G04 APERTURE LIST*
%TA.AperFunction,HeatsinkPad*%
%ADD10O,1.000000X2.100000*%
%TD*%
%TA.AperFunction,HeatsinkPad*%
%ADD11O,1.000000X1.800000*%
%TD*%
%TA.AperFunction,ComponentPad*%
%ADD12C,1.524000*%
%TD*%
%TA.AperFunction,ComponentPad*%
%ADD13R,1.500000X1.500000*%
%TD*%
%TA.AperFunction,ComponentPad*%
%ADD14C,1.500000*%
%TD*%
%TA.AperFunction,HeatsinkPad*%
%ADD15O,1.350000X1.700000*%
%TD*%
%TA.AperFunction,HeatsinkPad*%
%ADD16O,1.100000X1.500000*%
%TD*%
%TA.AperFunction,ViaPad*%
%ADD17C,0.700000*%
%TD*%
G04 APERTURE END LIST*
D10*
%TO.N,GND*%
%TO.C,J2*%
X72920000Y-56525000D03*
D11*
X72920000Y-52325000D03*
D10*
X64280000Y-56525000D03*
D11*
X64280000Y-52325000D03*
%TD*%
D12*
%TO.N,/ESP_MOSI*%
%TO.C,U1*%
X125780000Y-53598500D03*
%TO.N,/GPIO3*%
X125780000Y-56138500D03*
%TO.N,/GPIO4*%
X125780000Y-58678500D03*
%TO.N,/GPIO5*%
X125780000Y-61218500D03*
%TO.N,/GPIO6*%
X125780000Y-63758500D03*
%TO.N,/ESP_MISO*%
X125780000Y-66298500D03*
%TO.N,/ESP_TX*%
X125780000Y-68838500D03*
%TO.N,/ESP_RX*%
X141020000Y-68838500D03*
%TO.N,/ESP_SCK*%
X141020000Y-66298500D03*
%TO.N,/SYNC{slash}RESET*%
X141020000Y-63758500D03*
%TO.N,/GPIO10*%
X141020000Y-61218500D03*
%TO.N,/ESP_3.3V*%
X141020000Y-58678500D03*
%TO.N,GNDA*%
X141020000Y-56138500D03*
%TO.N,VCCQ*%
X141020000Y-53598500D03*
%TD*%
D13*
%TO.N,GND*%
%TO.C,U8*%
X85820000Y-72492500D03*
D14*
%TO.N,VCC*%
X88360000Y-72492500D03*
%TO.N,GNDA*%
X90900000Y-72492500D03*
%TO.N,VCCQ*%
X93440000Y-72492500D03*
%TD*%
D15*
%TO.N,GND*%
%TO.C,J1*%
X60265000Y-52445000D03*
D16*
X59955000Y-55445000D03*
X55115000Y-55445000D03*
D15*
X54805000Y-52445000D03*
%TD*%
D17*
%TO.N,/GPIO6*%
X136006587Y-101406587D03*
%TO.N,GNDA*%
X130200000Y-112400000D03*
X114600000Y-101400000D03*
X116800000Y-113200000D03*
X136200000Y-115900000D03*
X68000000Y-110600000D03*
X123200000Y-84000000D03*
X120400000Y-113200000D03*
X120900000Y-128300000D03*
X111700000Y-123600000D03*
X111200000Y-114700000D03*
X121800000Y-128300000D03*
X114100000Y-118100000D03*
X122200000Y-113200000D03*
X124700000Y-114700000D03*
X97300000Y-112200000D03*
X133726150Y-103673850D03*
X114100000Y-127100000D03*
X113500000Y-126500000D03*
X143500000Y-112000000D03*
X103300000Y-113200000D03*
X114100000Y-125100000D03*
X106300000Y-102100000D03*
X121100000Y-114700000D03*
X92100000Y-98200000D03*
X112100000Y-125100000D03*
X137400000Y-100600000D03*
X141400000Y-103500000D03*
X115100000Y-59900000D03*
X103100000Y-94900000D03*
X133200000Y-118900000D03*
X114100000Y-119400000D03*
X115000000Y-88100000D03*
X127900000Y-126300000D03*
X111700000Y-122800000D03*
X117700000Y-113200000D03*
X116400000Y-61000000D03*
X126500000Y-125600000D03*
X106000000Y-113200000D03*
X90600000Y-138600000D03*
X104400000Y-71300000D03*
X113900000Y-114700000D03*
X133400000Y-120800000D03*
X132900000Y-113900000D03*
X141100000Y-93600000D03*
X132600000Y-119500000D03*
X141100000Y-83000000D03*
X107800000Y-113200000D03*
X122900000Y-114700000D03*
X137600000Y-116600000D03*
X130400000Y-123800000D03*
X127600000Y-113200000D03*
X107600000Y-114700000D03*
X90900000Y-70300000D03*
X132800000Y-121400000D03*
X128300000Y-123800000D03*
X133700000Y-104500000D03*
X102400000Y-113200000D03*
X127100000Y-125000000D03*
X114600000Y-73600000D03*
X113100000Y-137900000D03*
X126600000Y-95700000D03*
X125600000Y-109900000D03*
X135200000Y-119000000D03*
X134000000Y-120200000D03*
X114800000Y-127800000D03*
X115000000Y-113200000D03*
X136900000Y-113600000D03*
X100600000Y-113200000D03*
X136400000Y-117800000D03*
X91400000Y-77200000D03*
X134400000Y-117700000D03*
X129700000Y-124500000D03*
X130400000Y-82400000D03*
X115000000Y-123700000D03*
X133500000Y-138100000D03*
X96100000Y-113200000D03*
X97700000Y-114700000D03*
X123100000Y-113200000D03*
X121000000Y-66600000D03*
X106400000Y-87700000D03*
X130700000Y-114100000D03*
X99700000Y-113200000D03*
X114200000Y-57600000D03*
X116300000Y-126800000D03*
X128000000Y-99700000D03*
X106900000Y-113200000D03*
X137000000Y-98200000D03*
X121300000Y-113200000D03*
X94200000Y-98200000D03*
X132200000Y-122000000D03*
X127500000Y-104000000D03*
X97900000Y-71300000D03*
X72600000Y-139800000D03*
X91200000Y-65300000D03*
X94700000Y-127600000D03*
X128300000Y-114700000D03*
X119500000Y-113200000D03*
X115900000Y-113200000D03*
X97900000Y-60200000D03*
X90100000Y-105600000D03*
X126700000Y-127500000D03*
X119900000Y-126800000D03*
X104200000Y-113200000D03*
X125300000Y-126800000D03*
X111200000Y-109200000D03*
X111400000Y-113200000D03*
X125900000Y-126200000D03*
X137500000Y-54400000D03*
X136800000Y-115300000D03*
X118400000Y-114700000D03*
X99500000Y-114700000D03*
X125400000Y-128300000D03*
X137100000Y-83000000D03*
X131000000Y-123200000D03*
X135800000Y-70100000D03*
X132400000Y-106000000D03*
X114800000Y-125800000D03*
X97900000Y-113200000D03*
X113200000Y-113200000D03*
X117300000Y-128300000D03*
X134600000Y-119600000D03*
X108500000Y-114700000D03*
X110300000Y-114700000D03*
X78800000Y-85000000D03*
X110500000Y-113200000D03*
X125600000Y-114700000D03*
X101100000Y-67400000D03*
X115500000Y-126500000D03*
X96200000Y-95300000D03*
X104400000Y-54500000D03*
X127700000Y-124400000D03*
X95100000Y-73900000D03*
X120900000Y-69800000D03*
X119100000Y-128300000D03*
X120300000Y-68200000D03*
X90100000Y-112300000D03*
X115500000Y-128300000D03*
X96800000Y-114700000D03*
X88400000Y-114300000D03*
X119300000Y-114700000D03*
X134500000Y-104500000D03*
X141100000Y-72800000D03*
X128500000Y-125700000D03*
X125800000Y-113200000D03*
X130200000Y-121900000D03*
X116600000Y-114700000D03*
X113600000Y-54500000D03*
X68900000Y-93400000D03*
X132000000Y-120100000D03*
X138200000Y-116000000D03*
X58200000Y-138600000D03*
X85100000Y-95300000D03*
X128500000Y-113200000D03*
X134300000Y-64100000D03*
X97400000Y-129500000D03*
X118600000Y-113200000D03*
X123800000Y-114700000D03*
X131400000Y-120700000D03*
X92900000Y-109200000D03*
X100400000Y-114700000D03*
X129600000Y-122500000D03*
X124000000Y-113200000D03*
X93400000Y-118300000D03*
X131600000Y-122600000D03*
X103100000Y-114700000D03*
X135800000Y-118400000D03*
X130100000Y-114700000D03*
X111700000Y-124400000D03*
X122900000Y-120800000D03*
X131300000Y-113500000D03*
X126100000Y-128100000D03*
X104100000Y-86900000D03*
X95700000Y-85900000D03*
X65700000Y-129200000D03*
X120200000Y-114700000D03*
X133900000Y-76600000D03*
X112800000Y-125800000D03*
X138300000Y-115200000D03*
X124400000Y-126800000D03*
X104900000Y-114700000D03*
X134800000Y-114000000D03*
X93700000Y-123200000D03*
X122000000Y-114700000D03*
X122200000Y-74500000D03*
X97000000Y-113200000D03*
X102200000Y-114700000D03*
X129400000Y-113200000D03*
X57300000Y-119500000D03*
X138300000Y-113400000D03*
X116400000Y-128300000D03*
X123600000Y-128300000D03*
X117500000Y-114700000D03*
X113000000Y-114700000D03*
X117300000Y-105800000D03*
X148100000Y-78600000D03*
X134500000Y-103700000D03*
X113100000Y-123800000D03*
X104000000Y-114700000D03*
X118200000Y-128300000D03*
X102800000Y-64400000D03*
X105800000Y-114700000D03*
X135300000Y-98100000D03*
X109400000Y-114700000D03*
X101300000Y-114700000D03*
X95400000Y-101300000D03*
X130800000Y-121300000D03*
X123500000Y-126800000D03*
X112100000Y-114700000D03*
X122600000Y-126800000D03*
X120000000Y-128300000D03*
X115700000Y-114700000D03*
X129200000Y-114700000D03*
X121700000Y-126800000D03*
X133800000Y-118300000D03*
X135600000Y-116500000D03*
X114100000Y-113200000D03*
X98800000Y-113200000D03*
X129100000Y-125100000D03*
X102100000Y-96000000D03*
X118100000Y-62400000D03*
X136900000Y-114500000D03*
X127300000Y-126900000D03*
X135000000Y-117100000D03*
X57500000Y-85600000D03*
X106700000Y-114700000D03*
X98600000Y-114700000D03*
X95200000Y-110900000D03*
X146800000Y-53500000D03*
X108700000Y-113200000D03*
X138300000Y-114300000D03*
X128200000Y-70800000D03*
X124500000Y-128300000D03*
X95100000Y-71200000D03*
X118100000Y-126800000D03*
X82000000Y-111000000D03*
X119200000Y-108100000D03*
X109600000Y-113200000D03*
X127400000Y-114700000D03*
X90200000Y-117500000D03*
X57700000Y-101800000D03*
X114800000Y-114700000D03*
X101800000Y-99300000D03*
X96100000Y-100200000D03*
X105100000Y-113200000D03*
X97700000Y-80600000D03*
X113100000Y-122900000D03*
X120800000Y-126800000D03*
X137000000Y-117200000D03*
X103100000Y-60200000D03*
X122700000Y-128300000D03*
X126500000Y-114700000D03*
X129000000Y-123100000D03*
X126700000Y-113200000D03*
X112300000Y-113200000D03*
X124900000Y-113200000D03*
X117200000Y-126800000D03*
X132400000Y-101300000D03*
X81400000Y-117100000D03*
X140900000Y-127200000D03*
X113500000Y-124500000D03*
X101500000Y-113200000D03*
X119000000Y-126800000D03*
X127700000Y-106000000D03*
X94300000Y-67000000D03*
%TO.N,/ESP_3.3V*%
X141800000Y-102200000D03*
X144100000Y-59900000D03*
X144100000Y-58700000D03*
X133000000Y-88500000D03*
X130100100Y-104100000D03*
%TO.N,Net-(Q8-G)*%
X118000000Y-61200000D03*
X93600000Y-127200000D03*
%TO.N,/GPIO10*%
X105300000Y-87000000D03*
%TO.N,GND*%
X69500000Y-76800000D03*
X53300000Y-62700000D03*
X75200000Y-68500000D03*
X80400000Y-76800000D03*
X58800000Y-66200000D03*
X64000000Y-65100000D03*
X68800000Y-69000000D03*
X62000000Y-76100000D03*
X77700000Y-53100000D03*
X73600000Y-62700000D03*
X62600000Y-67100000D03*
X55300000Y-57900000D03*
X62200000Y-60500000D03*
X54500000Y-69000000D03*
X70000000Y-53800000D03*
X83600000Y-68700000D03*
X64600000Y-70400000D03*
X66700000Y-53900000D03*
X54900000Y-76000000D03*
X61500000Y-63100000D03*
%TO.N,Net-(Q7-G)*%
X80400000Y-117200000D03*
X114000000Y-56200000D03*
%TO.N,VCC*%
X73000000Y-59900000D03*
X88400000Y-75000000D03*
X80700000Y-65900000D03*
X64400000Y-59700000D03*
X78900000Y-64000000D03*
X59200000Y-58400000D03*
X87200000Y-78800000D03*
X76000000Y-72900000D03*
X59800000Y-57500000D03*
X88400000Y-77000000D03*
X86800000Y-54300000D03*
X65100000Y-59000000D03*
X73000000Y-58900000D03*
X72200000Y-59200000D03*
X84900000Y-52300000D03*
X60700000Y-58400000D03*
X64300000Y-58800000D03*
X73900000Y-74900000D03*
%TO.N,VCCQ*%
X94200000Y-52200000D03*
X93500000Y-77000000D03*
X97900000Y-77200000D03*
X95900000Y-102300000D03*
X95400000Y-72500000D03*
X116400000Y-94900000D03*
X122100000Y-119800000D03*
X95200000Y-77200000D03*
X116400000Y-97200000D03*
X92000000Y-54300000D03*
X102000000Y-94900000D03*
%TO.N,Net-(D5-A)*%
X90000000Y-111200000D03*
X92400000Y-118100000D03*
X97800000Y-111300000D03*
%TO.N,/D-*%
X62600000Y-65400000D03*
X61237132Y-64088603D03*
%TO.N,/ESP_TX*%
X121500000Y-68900000D03*
%TO.N,/ESP_RX*%
X121700000Y-67400000D03*
%TO.N,Net-(Q5-G)*%
X101000000Y-98600000D03*
X114900000Y-58700000D03*
%TD*%
%TA.AperFunction,Conductor*%
%TO.N,GNDA*%
G36*
X149343039Y-50626911D02*
G01*
X149388794Y-50679715D01*
X149400000Y-50731226D01*
X149400000Y-149276000D01*
X149380315Y-149343039D01*
X149327511Y-149388794D01*
X149276000Y-149400000D01*
X50723988Y-149400000D01*
X50656949Y-149380315D01*
X50611194Y-149327511D01*
X50599988Y-149276012D01*
X50597984Y-127705276D01*
X50597943Y-127264071D01*
X92949499Y-127264071D01*
X92974497Y-127389738D01*
X92974499Y-127389744D01*
X93023533Y-127508124D01*
X93023538Y-127508133D01*
X93094723Y-127614668D01*
X93094726Y-127614672D01*
X93185327Y-127705273D01*
X93185331Y-127705276D01*
X93291866Y-127776461D01*
X93291872Y-127776464D01*
X93291873Y-127776465D01*
X93410256Y-127825501D01*
X93410260Y-127825501D01*
X93410261Y-127825502D01*
X93535928Y-127850500D01*
X93535931Y-127850500D01*
X93664071Y-127850500D01*
X93748615Y-127833682D01*
X93789744Y-127825501D01*
X93908127Y-127776465D01*
X94014669Y-127705276D01*
X94105276Y-127614669D01*
X94176465Y-127508127D01*
X94225501Y-127389744D01*
X94250500Y-127264069D01*
X94250500Y-127135931D01*
X94250500Y-127135928D01*
X94225502Y-127010261D01*
X94225501Y-127010260D01*
X94225501Y-127010256D01*
X94176465Y-126891873D01*
X94176464Y-126891872D01*
X94176461Y-126891866D01*
X94105276Y-126785331D01*
X94105273Y-126785327D01*
X94014672Y-126694726D01*
X94014668Y-126694723D01*
X93908133Y-126623538D01*
X93908124Y-126623533D01*
X93789744Y-126574499D01*
X93789738Y-126574497D01*
X93664071Y-126549500D01*
X93664069Y-126549500D01*
X93535931Y-126549500D01*
X93535929Y-126549500D01*
X93410261Y-126574497D01*
X93410255Y-126574499D01*
X93291875Y-126623533D01*
X93291866Y-126623538D01*
X93185331Y-126694723D01*
X93185327Y-126694726D01*
X93094726Y-126785327D01*
X93094723Y-126785331D01*
X93023538Y-126891866D01*
X93023533Y-126891875D01*
X92974499Y-127010255D01*
X92974497Y-127010261D01*
X92949500Y-127135928D01*
X92949500Y-127135931D01*
X92949500Y-127264069D01*
X92949500Y-127264071D01*
X92949499Y-127264071D01*
X50597943Y-127264071D01*
X50597311Y-120450500D01*
X50597256Y-119864071D01*
X121449499Y-119864071D01*
X121474497Y-119989738D01*
X121474499Y-119989744D01*
X121523533Y-120108124D01*
X121523538Y-120108133D01*
X121594723Y-120214668D01*
X121594726Y-120214672D01*
X121685327Y-120305273D01*
X121685331Y-120305276D01*
X121791866Y-120376461D01*
X121791872Y-120376464D01*
X121791873Y-120376465D01*
X121910256Y-120425501D01*
X121910260Y-120425501D01*
X121910261Y-120425502D01*
X122035928Y-120450500D01*
X122035931Y-120450500D01*
X122164071Y-120450500D01*
X122248615Y-120433682D01*
X122289744Y-120425501D01*
X122408127Y-120376465D01*
X122514669Y-120305276D01*
X122605276Y-120214669D01*
X122676465Y-120108127D01*
X122725501Y-119989744D01*
X122750500Y-119864069D01*
X122750500Y-119735931D01*
X122750500Y-119735928D01*
X122725502Y-119610261D01*
X122725501Y-119610260D01*
X122725501Y-119610256D01*
X122676465Y-119491873D01*
X122676464Y-119491872D01*
X122676461Y-119491866D01*
X122605276Y-119385331D01*
X122605273Y-119385327D01*
X122514672Y-119294726D01*
X122514668Y-119294723D01*
X122408133Y-119223538D01*
X122408124Y-119223533D01*
X122289744Y-119174499D01*
X122289738Y-119174497D01*
X122164071Y-119149500D01*
X122164069Y-119149500D01*
X122035931Y-119149500D01*
X122035929Y-119149500D01*
X121910261Y-119174497D01*
X121910255Y-119174499D01*
X121791875Y-119223533D01*
X121791866Y-119223538D01*
X121685331Y-119294723D01*
X121685327Y-119294726D01*
X121594726Y-119385327D01*
X121594723Y-119385331D01*
X121523538Y-119491866D01*
X121523533Y-119491875D01*
X121474499Y-119610255D01*
X121474497Y-119610261D01*
X121449500Y-119735928D01*
X121449500Y-119735931D01*
X121449500Y-119864069D01*
X121449500Y-119864071D01*
X121449499Y-119864071D01*
X50597256Y-119864071D01*
X50597244Y-119729851D01*
X50597098Y-118164071D01*
X91749499Y-118164071D01*
X91774497Y-118289738D01*
X91774499Y-118289744D01*
X91823533Y-118408124D01*
X91823538Y-118408133D01*
X91894723Y-118514668D01*
X91894726Y-118514672D01*
X91985327Y-118605273D01*
X91985331Y-118605276D01*
X92091866Y-118676461D01*
X92091872Y-118676464D01*
X92091873Y-118676465D01*
X92210256Y-118725501D01*
X92210260Y-118725501D01*
X92210261Y-118725502D01*
X92335928Y-118750500D01*
X92335931Y-118750500D01*
X92464071Y-118750500D01*
X92548615Y-118733682D01*
X92589744Y-118725501D01*
X92708127Y-118676465D01*
X92814669Y-118605276D01*
X92905276Y-118514669D01*
X92976465Y-118408127D01*
X93025501Y-118289744D01*
X93050500Y-118164069D01*
X93050500Y-118035931D01*
X93050500Y-118035928D01*
X93025502Y-117910261D01*
X93025501Y-117910260D01*
X93025501Y-117910256D01*
X92976465Y-117791873D01*
X92976464Y-117791872D01*
X92976461Y-117791866D01*
X92905276Y-117685331D01*
X92905273Y-117685327D01*
X92814672Y-117594726D01*
X92814668Y-117594723D01*
X92708133Y-117523538D01*
X92708124Y-117523533D01*
X92589744Y-117474499D01*
X92589738Y-117474497D01*
X92464071Y-117449500D01*
X92464069Y-117449500D01*
X92335931Y-117449500D01*
X92335929Y-117449500D01*
X92210261Y-117474497D01*
X92210255Y-117474499D01*
X92091875Y-117523533D01*
X92091866Y-117523538D01*
X91985331Y-117594723D01*
X91985327Y-117594726D01*
X91894726Y-117685327D01*
X91894723Y-117685331D01*
X91823538Y-117791866D01*
X91823533Y-117791875D01*
X91774499Y-117910255D01*
X91774497Y-117910261D01*
X91749500Y-118035928D01*
X91749500Y-118035931D01*
X91749500Y-118164069D01*
X91749500Y-118164071D01*
X91749499Y-118164071D01*
X50597098Y-118164071D01*
X50597086Y-118029851D01*
X50597015Y-117264071D01*
X79749499Y-117264071D01*
X79774497Y-117389738D01*
X79774499Y-117389744D01*
X79823533Y-117508124D01*
X79823538Y-117508133D01*
X79894723Y-117614668D01*
X79894726Y-117614672D01*
X79985327Y-117705273D01*
X79985331Y-117705276D01*
X80091866Y-117776461D01*
X80091872Y-117776464D01*
X80091873Y-117776465D01*
X80210256Y-117825501D01*
X80210260Y-117825501D01*
X80210261Y-117825502D01*
X80335928Y-117850500D01*
X80335931Y-117850500D01*
X80464071Y-117850500D01*
X80548615Y-117833682D01*
X80589744Y-117825501D01*
X80708127Y-117776465D01*
X80814669Y-117705276D01*
X80905276Y-117614669D01*
X80976465Y-117508127D01*
X81025501Y-117389744D01*
X81050500Y-117264069D01*
X81050500Y-117135931D01*
X81050500Y-117135928D01*
X81025502Y-117010261D01*
X81025501Y-117010260D01*
X81025501Y-117010256D01*
X80976465Y-116891873D01*
X80976464Y-116891872D01*
X80976461Y-116891866D01*
X80905276Y-116785331D01*
X80905273Y-116785327D01*
X80814672Y-116694726D01*
X80814668Y-116694723D01*
X80708133Y-116623538D01*
X80708124Y-116623533D01*
X80589744Y-116574499D01*
X80589738Y-116574497D01*
X80464071Y-116549500D01*
X80464069Y-116549500D01*
X80335931Y-116549500D01*
X80335929Y-116549500D01*
X80210261Y-116574497D01*
X80210255Y-116574499D01*
X80091875Y-116623533D01*
X80091866Y-116623538D01*
X79985331Y-116694723D01*
X79985327Y-116694726D01*
X79894726Y-116785327D01*
X79894723Y-116785331D01*
X79823538Y-116891866D01*
X79823533Y-116891875D01*
X79774499Y-117010255D01*
X79774497Y-117010261D01*
X79749500Y-117135928D01*
X79749500Y-117135931D01*
X79749500Y-117264069D01*
X79749500Y-117264071D01*
X79749499Y-117264071D01*
X50597015Y-117264071D01*
X50597002Y-117129851D01*
X50596457Y-111264071D01*
X89349499Y-111264071D01*
X89374497Y-111389738D01*
X89374499Y-111389744D01*
X89423533Y-111508124D01*
X89423538Y-111508133D01*
X89494723Y-111614668D01*
X89494726Y-111614672D01*
X89585327Y-111705273D01*
X89585331Y-111705276D01*
X89691866Y-111776461D01*
X89691872Y-111776464D01*
X89691873Y-111776465D01*
X89810256Y-111825501D01*
X89810260Y-111825501D01*
X89810261Y-111825502D01*
X89935928Y-111850500D01*
X89935931Y-111850500D01*
X90064071Y-111850500D01*
X90148615Y-111833682D01*
X90189744Y-111825501D01*
X90308127Y-111776465D01*
X90414669Y-111705276D01*
X90505276Y-111614669D01*
X90576465Y-111508127D01*
X90625501Y-111389744D01*
X90630608Y-111364071D01*
X97149499Y-111364071D01*
X97174497Y-111489738D01*
X97174499Y-111489744D01*
X97223533Y-111608124D01*
X97223538Y-111608133D01*
X97294723Y-111714668D01*
X97294726Y-111714672D01*
X97385327Y-111805273D01*
X97385331Y-111805276D01*
X97491866Y-111876461D01*
X97491872Y-111876464D01*
X97491873Y-111876465D01*
X97610256Y-111925501D01*
X97610260Y-111925501D01*
X97610261Y-111925502D01*
X97735928Y-111950500D01*
X97735931Y-111950500D01*
X97864071Y-111950500D01*
X97948615Y-111933682D01*
X97989744Y-111925501D01*
X98108127Y-111876465D01*
X98214669Y-111805276D01*
X98305276Y-111714669D01*
X98376465Y-111608127D01*
X98425501Y-111489744D01*
X98450500Y-111364069D01*
X98450500Y-111235931D01*
X98450500Y-111235928D01*
X98425502Y-111110261D01*
X98425501Y-111110260D01*
X98425501Y-111110256D01*
X98376465Y-110991873D01*
X98376464Y-110991872D01*
X98376461Y-110991866D01*
X98305276Y-110885331D01*
X98305273Y-110885327D01*
X98214672Y-110794726D01*
X98214668Y-110794723D01*
X98108133Y-110723538D01*
X98108124Y-110723533D01*
X97989744Y-110674499D01*
X97989738Y-110674497D01*
X97864071Y-110649500D01*
X97864069Y-110649500D01*
X97735931Y-110649500D01*
X97735929Y-110649500D01*
X97610261Y-110674497D01*
X97610255Y-110674499D01*
X97491875Y-110723533D01*
X97491866Y-110723538D01*
X97385331Y-110794723D01*
X97385327Y-110794726D01*
X97294726Y-110885327D01*
X97294723Y-110885331D01*
X97223538Y-110991866D01*
X97223533Y-110991875D01*
X97174499Y-111110255D01*
X97174497Y-111110261D01*
X97149500Y-111235928D01*
X97149500Y-111235931D01*
X97149500Y-111364069D01*
X97149500Y-111364071D01*
X97149499Y-111364071D01*
X90630608Y-111364071D01*
X90650500Y-111264069D01*
X90650500Y-111135931D01*
X90650500Y-111135928D01*
X90625502Y-111010261D01*
X90625501Y-111010260D01*
X90625501Y-111010256D01*
X90576465Y-110891873D01*
X90576464Y-110891872D01*
X90576461Y-110891866D01*
X90505276Y-110785331D01*
X90505273Y-110785327D01*
X90414672Y-110694726D01*
X90414668Y-110694723D01*
X90308133Y-110623538D01*
X90308124Y-110623533D01*
X90189744Y-110574499D01*
X90189738Y-110574497D01*
X90064071Y-110549500D01*
X90064069Y-110549500D01*
X89935931Y-110549500D01*
X89935929Y-110549500D01*
X89810261Y-110574497D01*
X89810255Y-110574499D01*
X89691875Y-110623533D01*
X89691866Y-110623538D01*
X89585331Y-110694723D01*
X89585327Y-110694726D01*
X89494726Y-110785327D01*
X89494723Y-110785331D01*
X89423538Y-110891866D01*
X89423533Y-110891875D01*
X89374499Y-111010255D01*
X89374497Y-111010261D01*
X89349500Y-111135928D01*
X89349500Y-111135931D01*
X89349500Y-111264069D01*
X89349500Y-111264071D01*
X89349499Y-111264071D01*
X50596457Y-111264071D01*
X50596445Y-111129851D01*
X50595845Y-104676461D01*
X50595798Y-104164071D01*
X129449599Y-104164071D01*
X129474597Y-104289738D01*
X129474599Y-104289744D01*
X129523633Y-104408124D01*
X129523638Y-104408133D01*
X129594823Y-104514668D01*
X129594826Y-104514672D01*
X129685427Y-104605273D01*
X129685431Y-104605276D01*
X129791966Y-104676461D01*
X129791972Y-104676464D01*
X129791973Y-104676465D01*
X129910356Y-104725501D01*
X129910360Y-104725501D01*
X129910361Y-104725502D01*
X130036028Y-104750500D01*
X130036031Y-104750500D01*
X130164171Y-104750500D01*
X130248715Y-104733682D01*
X130289844Y-104725501D01*
X130408227Y-104676465D01*
X130514769Y-104605276D01*
X130605376Y-104514669D01*
X130676565Y-104408127D01*
X130725601Y-104289744D01*
X130750600Y-104164069D01*
X130750600Y-104035931D01*
X130750600Y-104035928D01*
X130725602Y-103910261D01*
X130725601Y-103910260D01*
X130725601Y-103910256D01*
X130676565Y-103791873D01*
X130676564Y-103791872D01*
X130676561Y-103791866D01*
X130605376Y-103685331D01*
X130605373Y-103685327D01*
X130514772Y-103594726D01*
X130514768Y-103594723D01*
X130408233Y-103523538D01*
X130408224Y-103523533D01*
X130289844Y-103474499D01*
X130289838Y-103474497D01*
X130164171Y-103449500D01*
X130164169Y-103449500D01*
X130036031Y-103449500D01*
X130036029Y-103449500D01*
X129910361Y-103474497D01*
X129910355Y-103474499D01*
X129791975Y-103523533D01*
X129791966Y-103523538D01*
X129685431Y-103594723D01*
X129685427Y-103594726D01*
X129594826Y-103685327D01*
X129594823Y-103685331D01*
X129523638Y-103791866D01*
X129523633Y-103791875D01*
X129474599Y-103910255D01*
X129474597Y-103910261D01*
X129449600Y-104035928D01*
X129449600Y-104035931D01*
X129449600Y-104164069D01*
X129449600Y-104164071D01*
X129449599Y-104164071D01*
X50595798Y-104164071D01*
X50595685Y-102950500D01*
X50595630Y-102364071D01*
X95249499Y-102364071D01*
X95274497Y-102489738D01*
X95274499Y-102489744D01*
X95323533Y-102608124D01*
X95323538Y-102608133D01*
X95394723Y-102714668D01*
X95394726Y-102714672D01*
X95485327Y-102805273D01*
X95485331Y-102805276D01*
X95591866Y-102876461D01*
X95591872Y-102876464D01*
X95591873Y-102876465D01*
X95710256Y-102925501D01*
X95710260Y-102925501D01*
X95710261Y-102925502D01*
X95835928Y-102950500D01*
X95835931Y-102950500D01*
X95964071Y-102950500D01*
X96048615Y-102933682D01*
X96089744Y-102925501D01*
X96208127Y-102876465D01*
X96314669Y-102805276D01*
X96405276Y-102714669D01*
X96476465Y-102608127D01*
X96525501Y-102489744D01*
X96550500Y-102364069D01*
X96550500Y-102264071D01*
X141149499Y-102264071D01*
X141174497Y-102389738D01*
X141174499Y-102389744D01*
X141223533Y-102508124D01*
X141223538Y-102508133D01*
X141294723Y-102614668D01*
X141294726Y-102614672D01*
X141385327Y-102705273D01*
X141385331Y-102705276D01*
X141491866Y-102776461D01*
X141491872Y-102776464D01*
X141491873Y-102776465D01*
X141610256Y-102825501D01*
X141610260Y-102825501D01*
X141610261Y-102825502D01*
X141735928Y-102850500D01*
X141735931Y-102850500D01*
X141864071Y-102850500D01*
X141948615Y-102833682D01*
X141989744Y-102825501D01*
X142108127Y-102776465D01*
X142214669Y-102705276D01*
X142305276Y-102614669D01*
X142376465Y-102508127D01*
X142425501Y-102389744D01*
X142450500Y-102264069D01*
X142450500Y-102135931D01*
X142450500Y-102135928D01*
X142425502Y-102010261D01*
X142425501Y-102010260D01*
X142425501Y-102010256D01*
X142376465Y-101891873D01*
X142376464Y-101891872D01*
X142376461Y-101891866D01*
X142305276Y-101785331D01*
X142305273Y-101785327D01*
X142214672Y-101694726D01*
X142214668Y-101694723D01*
X142108133Y-101623538D01*
X142108124Y-101623533D01*
X141989744Y-101574499D01*
X141989738Y-101574497D01*
X141864071Y-101549500D01*
X141864069Y-101549500D01*
X141735931Y-101549500D01*
X141735929Y-101549500D01*
X141610261Y-101574497D01*
X141610255Y-101574499D01*
X141491875Y-101623533D01*
X141491866Y-101623538D01*
X141385331Y-101694723D01*
X141385327Y-101694726D01*
X141294726Y-101785327D01*
X141294723Y-101785331D01*
X141223538Y-101891866D01*
X141223533Y-101891875D01*
X141174499Y-102010255D01*
X141174497Y-102010261D01*
X141149500Y-102135928D01*
X141149500Y-102135931D01*
X141149500Y-102264069D01*
X141149500Y-102264071D01*
X141149499Y-102264071D01*
X96550500Y-102264071D01*
X96550500Y-102235931D01*
X96550500Y-102235928D01*
X96525502Y-102110261D01*
X96525501Y-102110260D01*
X96525501Y-102110256D01*
X96476465Y-101991873D01*
X96476464Y-101991872D01*
X96476461Y-101991866D01*
X96405276Y-101885331D01*
X96405273Y-101885327D01*
X96314672Y-101794726D01*
X96314668Y-101794723D01*
X96208133Y-101723538D01*
X96208124Y-101723533D01*
X96089744Y-101674499D01*
X96089738Y-101674497D01*
X95964071Y-101649500D01*
X95964069Y-101649500D01*
X95835931Y-101649500D01*
X95835929Y-101649500D01*
X95710261Y-101674497D01*
X95710255Y-101674499D01*
X95591875Y-101723533D01*
X95591866Y-101723538D01*
X95485331Y-101794723D01*
X95485327Y-101794726D01*
X95394726Y-101885327D01*
X95394723Y-101885331D01*
X95323538Y-101991866D01*
X95323533Y-101991875D01*
X95274499Y-102110255D01*
X95274497Y-102110261D01*
X95249500Y-102235928D01*
X95249500Y-102235931D01*
X95249500Y-102364069D01*
X95249500Y-102364071D01*
X95249499Y-102364071D01*
X50595630Y-102364071D01*
X50595618Y-102229851D01*
X50595547Y-101470658D01*
X135356086Y-101470658D01*
X135381084Y-101596325D01*
X135381086Y-101596331D01*
X135430120Y-101714711D01*
X135430125Y-101714720D01*
X135501310Y-101821255D01*
X135501313Y-101821259D01*
X135591914Y-101911860D01*
X135591918Y-101911863D01*
X135698453Y-101983048D01*
X135698462Y-101983053D01*
X135725279Y-101994161D01*
X135816843Y-102032088D01*
X135816847Y-102032088D01*
X135816848Y-102032089D01*
X135942515Y-102057087D01*
X135942518Y-102057087D01*
X136070658Y-102057087D01*
X136155202Y-102040269D01*
X136196331Y-102032088D01*
X136314714Y-101983052D01*
X136421256Y-101911863D01*
X136511863Y-101821256D01*
X136583052Y-101714714D01*
X136632088Y-101596331D01*
X136657087Y-101470656D01*
X136657087Y-101342518D01*
X136657087Y-101342515D01*
X136632089Y-101216848D01*
X136632088Y-101216847D01*
X136632088Y-101216843D01*
X136583052Y-101098460D01*
X136583051Y-101098459D01*
X136583048Y-101098453D01*
X136511863Y-100991918D01*
X136511860Y-100991914D01*
X136421259Y-100901313D01*
X136421255Y-100901310D01*
X136314720Y-100830125D01*
X136314711Y-100830120D01*
X136196331Y-100781086D01*
X136196325Y-100781084D01*
X136070658Y-100756087D01*
X136070656Y-100756087D01*
X135942518Y-100756087D01*
X135942516Y-100756087D01*
X135816848Y-100781084D01*
X135816842Y-100781086D01*
X135698462Y-100830120D01*
X135698453Y-100830125D01*
X135591918Y-100901310D01*
X135591914Y-100901313D01*
X135501313Y-100991914D01*
X135501310Y-100991918D01*
X135430125Y-101098453D01*
X135430120Y-101098462D01*
X135381086Y-101216842D01*
X135381084Y-101216848D01*
X135356087Y-101342515D01*
X135356087Y-101342518D01*
X135356087Y-101470656D01*
X135356087Y-101470658D01*
X135356086Y-101470658D01*
X50595547Y-101470658D01*
X50595535Y-101336438D01*
X50595298Y-98789738D01*
X50595286Y-98664071D01*
X100349499Y-98664071D01*
X100374497Y-98789738D01*
X100374499Y-98789744D01*
X100423533Y-98908124D01*
X100423538Y-98908133D01*
X100494723Y-99014668D01*
X100494726Y-99014672D01*
X100585327Y-99105273D01*
X100585331Y-99105276D01*
X100691866Y-99176461D01*
X100691872Y-99176464D01*
X100691873Y-99176465D01*
X100810256Y-99225501D01*
X100810260Y-99225501D01*
X100810261Y-99225502D01*
X100935928Y-99250500D01*
X100935931Y-99250500D01*
X101064071Y-99250500D01*
X101148615Y-99233682D01*
X101189744Y-99225501D01*
X101308127Y-99176465D01*
X101414669Y-99105276D01*
X101505276Y-99014669D01*
X101576465Y-98908127D01*
X101625501Y-98789744D01*
X101650500Y-98664069D01*
X101650500Y-98535931D01*
X101650500Y-98535928D01*
X101625502Y-98410261D01*
X101625501Y-98410260D01*
X101625501Y-98410256D01*
X101576465Y-98291873D01*
X101576464Y-98291872D01*
X101576461Y-98291866D01*
X101505276Y-98185331D01*
X101505273Y-98185327D01*
X101414672Y-98094726D01*
X101414668Y-98094723D01*
X101308133Y-98023538D01*
X101308124Y-98023533D01*
X101189744Y-97974499D01*
X101189738Y-97974497D01*
X101064071Y-97949500D01*
X101064069Y-97949500D01*
X100935931Y-97949500D01*
X100935929Y-97949500D01*
X100810261Y-97974497D01*
X100810255Y-97974499D01*
X100691875Y-98023533D01*
X100691866Y-98023538D01*
X100585331Y-98094723D01*
X100585327Y-98094726D01*
X100494726Y-98185327D01*
X100494723Y-98185331D01*
X100423538Y-98291866D01*
X100423533Y-98291875D01*
X100374499Y-98410255D01*
X100374497Y-98410261D01*
X100349500Y-98535928D01*
X100349500Y-98535931D01*
X100349500Y-98664069D01*
X100349500Y-98664071D01*
X100349499Y-98664071D01*
X50595286Y-98664071D01*
X50595156Y-97264071D01*
X115749499Y-97264071D01*
X115774497Y-97389738D01*
X115774499Y-97389744D01*
X115823533Y-97508124D01*
X115823538Y-97508133D01*
X115894723Y-97614668D01*
X115894726Y-97614672D01*
X115985327Y-97705273D01*
X115985331Y-97705276D01*
X116091866Y-97776461D01*
X116091872Y-97776464D01*
X116091873Y-97776465D01*
X116210256Y-97825501D01*
X116210260Y-97825501D01*
X116210261Y-97825502D01*
X116335928Y-97850500D01*
X116335931Y-97850500D01*
X116464071Y-97850500D01*
X116548615Y-97833682D01*
X116589744Y-97825501D01*
X116708127Y-97776465D01*
X116814669Y-97705276D01*
X116905276Y-97614669D01*
X116976465Y-97508127D01*
X117025501Y-97389744D01*
X117050500Y-97264069D01*
X117050500Y-97135931D01*
X117050500Y-97135928D01*
X117025502Y-97010261D01*
X117025501Y-97010260D01*
X117025501Y-97010256D01*
X116976465Y-96891873D01*
X116976464Y-96891872D01*
X116976461Y-96891866D01*
X116905276Y-96785331D01*
X116905273Y-96785327D01*
X116814672Y-96694726D01*
X116814668Y-96694723D01*
X116708133Y-96623538D01*
X116708124Y-96623533D01*
X116589744Y-96574499D01*
X116589738Y-96574497D01*
X116464071Y-96549500D01*
X116464069Y-96549500D01*
X116335931Y-96549500D01*
X116335929Y-96549500D01*
X116210261Y-96574497D01*
X116210255Y-96574499D01*
X116091875Y-96623533D01*
X116091866Y-96623538D01*
X115985331Y-96694723D01*
X115985327Y-96694726D01*
X115894726Y-96785327D01*
X115894723Y-96785331D01*
X115823538Y-96891866D01*
X115823533Y-96891875D01*
X115774499Y-97010255D01*
X115774497Y-97010261D01*
X115749500Y-97135928D01*
X115749500Y-97135931D01*
X115749500Y-97264069D01*
X115749500Y-97264071D01*
X115749499Y-97264071D01*
X50595156Y-97264071D01*
X50594943Y-94964071D01*
X101349499Y-94964071D01*
X101374497Y-95089738D01*
X101374499Y-95089744D01*
X101423533Y-95208124D01*
X101423538Y-95208133D01*
X101494723Y-95314668D01*
X101494726Y-95314672D01*
X101585327Y-95405273D01*
X101585331Y-95405276D01*
X101691866Y-95476461D01*
X101691872Y-95476464D01*
X101691873Y-95476465D01*
X101810256Y-95525501D01*
X101810260Y-95525501D01*
X101810261Y-95525502D01*
X101935928Y-95550500D01*
X101935931Y-95550500D01*
X102064071Y-95550500D01*
X102148615Y-95533682D01*
X102189744Y-95525501D01*
X102308127Y-95476465D01*
X102414669Y-95405276D01*
X102505276Y-95314669D01*
X102576465Y-95208127D01*
X102625501Y-95089744D01*
X102650500Y-94964071D01*
X115749499Y-94964071D01*
X115774497Y-95089738D01*
X115774499Y-95089744D01*
X115823533Y-95208124D01*
X115823538Y-95208133D01*
X115894723Y-95314668D01*
X115894726Y-95314672D01*
X115985327Y-95405273D01*
X115985331Y-95405276D01*
X116091866Y-95476461D01*
X116091872Y-95476464D01*
X116091873Y-95476465D01*
X116210256Y-95525501D01*
X116210260Y-95525501D01*
X116210261Y-95525502D01*
X116335928Y-95550500D01*
X116335931Y-95550500D01*
X116464071Y-95550500D01*
X116548615Y-95533682D01*
X116589744Y-95525501D01*
X116708127Y-95476465D01*
X116814669Y-95405276D01*
X116905276Y-95314669D01*
X116976465Y-95208127D01*
X117025501Y-95089744D01*
X117050500Y-94964069D01*
X117050500Y-94835931D01*
X117050500Y-94835928D01*
X117025502Y-94710261D01*
X117025501Y-94710260D01*
X117025501Y-94710256D01*
X116976465Y-94591873D01*
X116976464Y-94591872D01*
X116976461Y-94591866D01*
X116905276Y-94485331D01*
X116905273Y-94485327D01*
X116814672Y-94394726D01*
X116814668Y-94394723D01*
X116708133Y-94323538D01*
X116708124Y-94323533D01*
X116589744Y-94274499D01*
X116589738Y-94274497D01*
X116464071Y-94249500D01*
X116464069Y-94249500D01*
X116335931Y-94249500D01*
X116335929Y-94249500D01*
X116210261Y-94274497D01*
X116210255Y-94274499D01*
X116091875Y-94323533D01*
X116091866Y-94323538D01*
X115985331Y-94394723D01*
X115985327Y-94394726D01*
X115894726Y-94485327D01*
X115894723Y-94485331D01*
X115823538Y-94591866D01*
X115823533Y-94591875D01*
X115774499Y-94710255D01*
X115774497Y-94710261D01*
X115749500Y-94835928D01*
X115749500Y-94835931D01*
X115749500Y-94964069D01*
X115749500Y-94964071D01*
X115749499Y-94964071D01*
X102650500Y-94964071D01*
X102650500Y-94964069D01*
X102650500Y-94835931D01*
X102650500Y-94835928D01*
X102625502Y-94710261D01*
X102625501Y-94710260D01*
X102625501Y-94710256D01*
X102576465Y-94591873D01*
X102576464Y-94591872D01*
X102576461Y-94591866D01*
X102505276Y-94485331D01*
X102505273Y-94485327D01*
X102414672Y-94394726D01*
X102414668Y-94394723D01*
X102308133Y-94323538D01*
X102308124Y-94323533D01*
X102189744Y-94274499D01*
X102189738Y-94274497D01*
X102064071Y-94249500D01*
X102064069Y-94249500D01*
X101935931Y-94249500D01*
X101935929Y-94249500D01*
X101810261Y-94274497D01*
X101810255Y-94274499D01*
X101691875Y-94323533D01*
X101691866Y-94323538D01*
X101585331Y-94394723D01*
X101585327Y-94394726D01*
X101494726Y-94485327D01*
X101494723Y-94485331D01*
X101423538Y-94591866D01*
X101423533Y-94591875D01*
X101374499Y-94710255D01*
X101374497Y-94710261D01*
X101349500Y-94835928D01*
X101349500Y-94835931D01*
X101349500Y-94964069D01*
X101349500Y-94964071D01*
X101349499Y-94964071D01*
X50594943Y-94964071D01*
X50594403Y-89150500D01*
X50594348Y-88564071D01*
X132349499Y-88564071D01*
X132374497Y-88689738D01*
X132374499Y-88689744D01*
X132423533Y-88808124D01*
X132423538Y-88808133D01*
X132494723Y-88914668D01*
X132494726Y-88914672D01*
X132585327Y-89005273D01*
X132585331Y-89005276D01*
X132691866Y-89076461D01*
X132691872Y-89076464D01*
X132691873Y-89076465D01*
X132810256Y-89125501D01*
X132810260Y-89125501D01*
X132810261Y-89125502D01*
X132935928Y-89150500D01*
X132935931Y-89150500D01*
X133064071Y-89150500D01*
X133148615Y-89133682D01*
X133189744Y-89125501D01*
X133308127Y-89076465D01*
X133414669Y-89005276D01*
X133505276Y-88914669D01*
X133576465Y-88808127D01*
X133625501Y-88689744D01*
X133650500Y-88564069D01*
X133650500Y-88435931D01*
X133650500Y-88435928D01*
X133625502Y-88310261D01*
X133625501Y-88310260D01*
X133625501Y-88310256D01*
X133576465Y-88191873D01*
X133576464Y-88191872D01*
X133576461Y-88191866D01*
X133505276Y-88085331D01*
X133505273Y-88085327D01*
X133414672Y-87994726D01*
X133414668Y-87994723D01*
X133308133Y-87923538D01*
X133308124Y-87923533D01*
X133189744Y-87874499D01*
X133189738Y-87874497D01*
X133064071Y-87849500D01*
X133064069Y-87849500D01*
X132935931Y-87849500D01*
X132935929Y-87849500D01*
X132810261Y-87874497D01*
X132810255Y-87874499D01*
X132691875Y-87923533D01*
X132691866Y-87923538D01*
X132585331Y-87994723D01*
X132585327Y-87994726D01*
X132494726Y-88085327D01*
X132494723Y-88085331D01*
X132423538Y-88191866D01*
X132423533Y-88191875D01*
X132374499Y-88310255D01*
X132374497Y-88310261D01*
X132349500Y-88435928D01*
X132349500Y-88435931D01*
X132349500Y-88564069D01*
X132349500Y-88564071D01*
X132349499Y-88564071D01*
X50594348Y-88564071D01*
X50594336Y-88429851D01*
X50594336Y-88429850D01*
X50594209Y-87064071D01*
X104649499Y-87064071D01*
X104674497Y-87189738D01*
X104674499Y-87189744D01*
X104723533Y-87308124D01*
X104723538Y-87308133D01*
X104794723Y-87414668D01*
X104794726Y-87414672D01*
X104885327Y-87505273D01*
X104885331Y-87505276D01*
X104991866Y-87576461D01*
X104991872Y-87576464D01*
X104991873Y-87576465D01*
X105110256Y-87625501D01*
X105110260Y-87625501D01*
X105110261Y-87625502D01*
X105235928Y-87650500D01*
X105235931Y-87650500D01*
X105364071Y-87650500D01*
X105448615Y-87633682D01*
X105489744Y-87625501D01*
X105608127Y-87576465D01*
X105714669Y-87505276D01*
X105805276Y-87414669D01*
X105876465Y-87308127D01*
X105925501Y-87189744D01*
X105950500Y-87064069D01*
X105950500Y-86935931D01*
X105950500Y-86935928D01*
X105925502Y-86810261D01*
X105925501Y-86810260D01*
X105925501Y-86810256D01*
X105876465Y-86691873D01*
X105876464Y-86691872D01*
X105876461Y-86691866D01*
X105805276Y-86585331D01*
X105805273Y-86585327D01*
X105714672Y-86494726D01*
X105714668Y-86494723D01*
X105608133Y-86423538D01*
X105608124Y-86423533D01*
X105489744Y-86374499D01*
X105489738Y-86374497D01*
X105364071Y-86349500D01*
X105364069Y-86349500D01*
X105235931Y-86349500D01*
X105235929Y-86349500D01*
X105110261Y-86374497D01*
X105110255Y-86374499D01*
X104991875Y-86423533D01*
X104991866Y-86423538D01*
X104885331Y-86494723D01*
X104885327Y-86494726D01*
X104794726Y-86585327D01*
X104794723Y-86585331D01*
X104723538Y-86691866D01*
X104723533Y-86691875D01*
X104674499Y-86810255D01*
X104674497Y-86810261D01*
X104649500Y-86935928D01*
X104649500Y-86935931D01*
X104649500Y-87064069D01*
X104649500Y-87064071D01*
X104649499Y-87064071D01*
X50594209Y-87064071D01*
X50594197Y-86929850D01*
X50593639Y-80924012D01*
X50613317Y-80856970D01*
X50666117Y-80811210D01*
X50717639Y-80800000D01*
X90100000Y-80800000D01*
X90100000Y-77064071D01*
X92849499Y-77064071D01*
X92874497Y-77189738D01*
X92874499Y-77189744D01*
X92923533Y-77308124D01*
X92923538Y-77308133D01*
X92994723Y-77414668D01*
X92994726Y-77414672D01*
X93085327Y-77505273D01*
X93085331Y-77505276D01*
X93191866Y-77576461D01*
X93191872Y-77576464D01*
X93191873Y-77576465D01*
X93310256Y-77625501D01*
X93310260Y-77625501D01*
X93310261Y-77625502D01*
X93435928Y-77650500D01*
X93435931Y-77650500D01*
X93564071Y-77650500D01*
X93648615Y-77633682D01*
X93689744Y-77625501D01*
X93808127Y-77576465D01*
X93914669Y-77505276D01*
X94005276Y-77414669D01*
X94076465Y-77308127D01*
X94094714Y-77264071D01*
X94549499Y-77264071D01*
X94574497Y-77389738D01*
X94574499Y-77389744D01*
X94623533Y-77508124D01*
X94623538Y-77508133D01*
X94694723Y-77614668D01*
X94694726Y-77614672D01*
X94785327Y-77705273D01*
X94785331Y-77705276D01*
X94891866Y-77776461D01*
X94891872Y-77776464D01*
X94891873Y-77776465D01*
X95010256Y-77825501D01*
X95010260Y-77825501D01*
X95010261Y-77825502D01*
X95135928Y-77850500D01*
X95135931Y-77850500D01*
X95264071Y-77850500D01*
X95348615Y-77833682D01*
X95389744Y-77825501D01*
X95508127Y-77776465D01*
X95614669Y-77705276D01*
X95705276Y-77614669D01*
X95776465Y-77508127D01*
X95825501Y-77389744D01*
X95850500Y-77264071D01*
X97249499Y-77264071D01*
X97274497Y-77389738D01*
X97274499Y-77389744D01*
X97323533Y-77508124D01*
X97323538Y-77508133D01*
X97394723Y-77614668D01*
X97394726Y-77614672D01*
X97485327Y-77705273D01*
X97485331Y-77705276D01*
X97591866Y-77776461D01*
X97591872Y-77776464D01*
X97591873Y-77776465D01*
X97710256Y-77825501D01*
X97710260Y-77825501D01*
X97710261Y-77825502D01*
X97835928Y-77850500D01*
X97835931Y-77850500D01*
X97964071Y-77850500D01*
X98048615Y-77833682D01*
X98089744Y-77825501D01*
X98208127Y-77776465D01*
X98314669Y-77705276D01*
X98405276Y-77614669D01*
X98476465Y-77508127D01*
X98525501Y-77389744D01*
X98550500Y-77264069D01*
X98550500Y-77135931D01*
X98550500Y-77135928D01*
X98525502Y-77010261D01*
X98525501Y-77010260D01*
X98525501Y-77010256D01*
X98476465Y-76891873D01*
X98476464Y-76891872D01*
X98476461Y-76891866D01*
X98405276Y-76785331D01*
X98405273Y-76785327D01*
X98314672Y-76694726D01*
X98314668Y-76694723D01*
X98208133Y-76623538D01*
X98208124Y-76623533D01*
X98089744Y-76574499D01*
X98089738Y-76574497D01*
X97964071Y-76549500D01*
X97964069Y-76549500D01*
X97835931Y-76549500D01*
X97835929Y-76549500D01*
X97710261Y-76574497D01*
X97710255Y-76574499D01*
X97591875Y-76623533D01*
X97591866Y-76623538D01*
X97485331Y-76694723D01*
X97485327Y-76694726D01*
X97394726Y-76785327D01*
X97394723Y-76785331D01*
X97323538Y-76891866D01*
X97323533Y-76891875D01*
X97274499Y-77010255D01*
X97274497Y-77010261D01*
X97249500Y-77135928D01*
X97249500Y-77135931D01*
X97249500Y-77264069D01*
X97249500Y-77264071D01*
X97249499Y-77264071D01*
X95850500Y-77264071D01*
X95850500Y-77264069D01*
X95850500Y-77135931D01*
X95850500Y-77135928D01*
X95825502Y-77010261D01*
X95825501Y-77010260D01*
X95825501Y-77010256D01*
X95776465Y-76891873D01*
X95776464Y-76891872D01*
X95776461Y-76891866D01*
X95705276Y-76785331D01*
X95705273Y-76785327D01*
X95614672Y-76694726D01*
X95614668Y-76694723D01*
X95508133Y-76623538D01*
X95508124Y-76623533D01*
X95389744Y-76574499D01*
X95389738Y-76574497D01*
X95264071Y-76549500D01*
X95264069Y-76549500D01*
X95135931Y-76549500D01*
X95135929Y-76549500D01*
X95010261Y-76574497D01*
X95010255Y-76574499D01*
X94891875Y-76623533D01*
X94891866Y-76623538D01*
X94785331Y-76694723D01*
X94785327Y-76694726D01*
X94694726Y-76785327D01*
X94694723Y-76785331D01*
X94623538Y-76891866D01*
X94623533Y-76891875D01*
X94574499Y-77010255D01*
X94574497Y-77010261D01*
X94549500Y-77135928D01*
X94549500Y-77135931D01*
X94549500Y-77264069D01*
X94549500Y-77264071D01*
X94549499Y-77264071D01*
X94094714Y-77264071D01*
X94125501Y-77189744D01*
X94129550Y-77169387D01*
X94142230Y-77105647D01*
X94142230Y-77105646D01*
X94150499Y-77064073D01*
X94150500Y-77064071D01*
X94150500Y-76935928D01*
X94125502Y-76810261D01*
X94125501Y-76810260D01*
X94125501Y-76810256D01*
X94076465Y-76691873D01*
X94076464Y-76691872D01*
X94076461Y-76691866D01*
X94005276Y-76585331D01*
X94005273Y-76585327D01*
X93914672Y-76494726D01*
X93914668Y-76494723D01*
X93808133Y-76423538D01*
X93808124Y-76423533D01*
X93689744Y-76374499D01*
X93689738Y-76374497D01*
X93564071Y-76349500D01*
X93564069Y-76349500D01*
X93435931Y-76349500D01*
X93435929Y-76349500D01*
X93310261Y-76374497D01*
X93310255Y-76374499D01*
X93191875Y-76423533D01*
X93191866Y-76423538D01*
X93085331Y-76494723D01*
X93085327Y-76494726D01*
X92994726Y-76585327D01*
X92994723Y-76585331D01*
X92923538Y-76691866D01*
X92923533Y-76691875D01*
X92874499Y-76810255D01*
X92874497Y-76810261D01*
X92849500Y-76935928D01*
X92849500Y-76935931D01*
X92849500Y-77064069D01*
X92849500Y-77064071D01*
X92849499Y-77064071D01*
X90100000Y-77064071D01*
X90100000Y-73690137D01*
X90119685Y-73623098D01*
X90172489Y-73577343D01*
X90241647Y-73567399D01*
X90280295Y-73579652D01*
X90420164Y-73650918D01*
X90607294Y-73711721D01*
X90801618Y-73742500D01*
X90998382Y-73742500D01*
X91192705Y-73711721D01*
X91379835Y-73650918D01*
X91555143Y-73561595D01*
X91590125Y-73536178D01*
X91590126Y-73536178D01*
X91029409Y-72975462D01*
X91092993Y-72958425D01*
X91207007Y-72892599D01*
X91300099Y-72799507D01*
X91365925Y-72685493D01*
X91382962Y-72621910D01*
X91943678Y-73182626D01*
X91943678Y-73182625D01*
X91969095Y-73147643D01*
X92058418Y-72972335D01*
X92119221Y-72785205D01*
X92147094Y-72609228D01*
X92177023Y-72546093D01*
X92236335Y-72509162D01*
X92306197Y-72510160D01*
X92364430Y-72548770D01*
X92391184Y-72604435D01*
X92429868Y-72798912D01*
X92429870Y-72798920D01*
X92509058Y-72990096D01*
X92624024Y-73162157D01*
X92770342Y-73308475D01*
X92770345Y-73308477D01*
X92942402Y-73423441D01*
X93133580Y-73502630D01*
X93321880Y-73540085D01*
X93336530Y-73542999D01*
X93336534Y-73543000D01*
X93336535Y-73543000D01*
X93543466Y-73543000D01*
X93543467Y-73542999D01*
X93746420Y-73502630D01*
X93937598Y-73423441D01*
X94109655Y-73308477D01*
X94255977Y-73162155D01*
X94370941Y-72990098D01*
X94450130Y-72798920D01*
X94490500Y-72595965D01*
X94490500Y-72564071D01*
X94749499Y-72564071D01*
X94774497Y-72689738D01*
X94774499Y-72689744D01*
X94823533Y-72808124D01*
X94823538Y-72808133D01*
X94894723Y-72914668D01*
X94894726Y-72914672D01*
X94985327Y-73005273D01*
X94985331Y-73005276D01*
X95091866Y-73076461D01*
X95091872Y-73076464D01*
X95091873Y-73076465D01*
X95210256Y-73125501D01*
X95210260Y-73125501D01*
X95210261Y-73125502D01*
X95335928Y-73150500D01*
X95335931Y-73150500D01*
X95464071Y-73150500D01*
X95548615Y-73133682D01*
X95589744Y-73125501D01*
X95708127Y-73076465D01*
X95814669Y-73005276D01*
X95905276Y-72914669D01*
X95976465Y-72808127D01*
X96025501Y-72689744D01*
X96041517Y-72609228D01*
X96050500Y-72564071D01*
X96050500Y-72435928D01*
X96025502Y-72310261D01*
X96025501Y-72310260D01*
X96025501Y-72310256D01*
X95976465Y-72191873D01*
X95976464Y-72191872D01*
X95976461Y-72191866D01*
X95905276Y-72085331D01*
X95905273Y-72085327D01*
X95814672Y-71994726D01*
X95814668Y-71994723D01*
X95708133Y-71923538D01*
X95708124Y-71923533D01*
X95589744Y-71874499D01*
X95589738Y-71874497D01*
X95464071Y-71849500D01*
X95464069Y-71849500D01*
X95335931Y-71849500D01*
X95335929Y-71849500D01*
X95210261Y-71874497D01*
X95210255Y-71874499D01*
X95091875Y-71923533D01*
X95091866Y-71923538D01*
X94985331Y-71994723D01*
X94985327Y-71994726D01*
X94894726Y-72085327D01*
X94894723Y-72085331D01*
X94823538Y-72191866D01*
X94823533Y-72191875D01*
X94774499Y-72310255D01*
X94774497Y-72310261D01*
X94749500Y-72435928D01*
X94749500Y-72435931D01*
X94749500Y-72564069D01*
X94749500Y-72564071D01*
X94749499Y-72564071D01*
X94490500Y-72564071D01*
X94490500Y-72389035D01*
X94450130Y-72186080D01*
X94370941Y-71994902D01*
X94255977Y-71822845D01*
X94255975Y-71822842D01*
X94109657Y-71676524D01*
X93949834Y-71569735D01*
X93937598Y-71561559D01*
X93746420Y-71482370D01*
X93746412Y-71482368D01*
X93543469Y-71442000D01*
X93543465Y-71442000D01*
X93336535Y-71442000D01*
X93336530Y-71442000D01*
X93133587Y-71482368D01*
X93133579Y-71482370D01*
X92942403Y-71561558D01*
X92770342Y-71676524D01*
X92624024Y-71822842D01*
X92509058Y-71994903D01*
X92429870Y-72186079D01*
X92429868Y-72186087D01*
X92391184Y-72380564D01*
X92358799Y-72442475D01*
X92298083Y-72477049D01*
X92228314Y-72473310D01*
X92171642Y-72432443D01*
X92147094Y-72375771D01*
X92119221Y-72199794D01*
X92058418Y-72012664D01*
X91969096Y-71837358D01*
X91943678Y-71802373D01*
X91943677Y-71802373D01*
X91382962Y-72363089D01*
X91365925Y-72299507D01*
X91300099Y-72185493D01*
X91207007Y-72092401D01*
X91092993Y-72026575D01*
X91029408Y-72009537D01*
X91590125Y-71448820D01*
X91590125Y-71448819D01*
X91555145Y-71423405D01*
X91379835Y-71334081D01*
X91192705Y-71273278D01*
X90998382Y-71242500D01*
X90801618Y-71242500D01*
X90607294Y-71273278D01*
X90420164Y-71334081D01*
X90280295Y-71405348D01*
X90211625Y-71418244D01*
X90146885Y-71391968D01*
X90106628Y-71334861D01*
X90100000Y-71294863D01*
X90100000Y-68964071D01*
X120849499Y-68964071D01*
X120874497Y-69089738D01*
X120874499Y-69089744D01*
X120923533Y-69208124D01*
X120923538Y-69208133D01*
X120994723Y-69314668D01*
X120994726Y-69314672D01*
X121085327Y-69405273D01*
X121085331Y-69405276D01*
X121191866Y-69476461D01*
X121191872Y-69476464D01*
X121191873Y-69476465D01*
X121310256Y-69525501D01*
X121310260Y-69525501D01*
X121310261Y-69525502D01*
X121435928Y-69550500D01*
X121435931Y-69550500D01*
X121564071Y-69550500D01*
X121648615Y-69533682D01*
X121689744Y-69525501D01*
X121808127Y-69476465D01*
X121914669Y-69405276D01*
X122005276Y-69314669D01*
X122076465Y-69208127D01*
X122125501Y-69089744D01*
X122150500Y-68964069D01*
X122150500Y-68835931D01*
X122150500Y-68835928D01*
X122133796Y-68751953D01*
X122130194Y-68733848D01*
X124717500Y-68733848D01*
X124717500Y-68943151D01*
X124758329Y-69148412D01*
X124758331Y-69148420D01*
X124838423Y-69341780D01*
X124954703Y-69515806D01*
X125102693Y-69663796D01*
X125276719Y-69780076D01*
X125373399Y-69820122D01*
X125470080Y-69860169D01*
X125643801Y-69894724D01*
X125675348Y-69900999D01*
X125675352Y-69901000D01*
X125675353Y-69901000D01*
X125884648Y-69901000D01*
X125884649Y-69900999D01*
X126089920Y-69860169D01*
X126283282Y-69780075D01*
X126457304Y-69663798D01*
X126605298Y-69515804D01*
X126721575Y-69341782D01*
X126801669Y-69148420D01*
X126842500Y-68943147D01*
X126842500Y-68733853D01*
X126842499Y-68733848D01*
X139957500Y-68733848D01*
X139957500Y-68943151D01*
X139998329Y-69148412D01*
X139998331Y-69148420D01*
X140078423Y-69341780D01*
X140194703Y-69515806D01*
X140342693Y-69663796D01*
X140516719Y-69780076D01*
X140613399Y-69820122D01*
X140710080Y-69860169D01*
X140883801Y-69894724D01*
X140915348Y-69900999D01*
X140915352Y-69901000D01*
X140915353Y-69901000D01*
X141124648Y-69901000D01*
X141124649Y-69900999D01*
X141329920Y-69860169D01*
X141523282Y-69780075D01*
X141697304Y-69663798D01*
X141845298Y-69515804D01*
X141961575Y-69341782D01*
X142041669Y-69148420D01*
X142082500Y-68943147D01*
X142082500Y-68733853D01*
X142041669Y-68528580D01*
X142001622Y-68431899D01*
X141961576Y-68335219D01*
X141845296Y-68161193D01*
X141697306Y-68013203D01*
X141523280Y-67896923D01*
X141329920Y-67816831D01*
X141329912Y-67816829D01*
X141124651Y-67776000D01*
X141124647Y-67776000D01*
X140915353Y-67776000D01*
X140915348Y-67776000D01*
X140710087Y-67816829D01*
X140710079Y-67816831D01*
X140516719Y-67896923D01*
X140342693Y-68013203D01*
X140194703Y-68161193D01*
X140078423Y-68335219D01*
X139998331Y-68528579D01*
X139998329Y-68528587D01*
X139957500Y-68733848D01*
X126842499Y-68733848D01*
X126801669Y-68528580D01*
X126761622Y-68431899D01*
X126721576Y-68335219D01*
X126605296Y-68161193D01*
X126457306Y-68013203D01*
X126283280Y-67896923D01*
X126089920Y-67816831D01*
X126089912Y-67816829D01*
X125884651Y-67776000D01*
X125884647Y-67776000D01*
X125675353Y-67776000D01*
X125675348Y-67776000D01*
X125470087Y-67816829D01*
X125470079Y-67816831D01*
X125276719Y-67896923D01*
X125102693Y-68013203D01*
X124954703Y-68161193D01*
X124838423Y-68335219D01*
X124758331Y-68528579D01*
X124758329Y-68528587D01*
X124717500Y-68733848D01*
X122130194Y-68733848D01*
X122125502Y-68710260D01*
X122125501Y-68710258D01*
X122125501Y-68710256D01*
X122076465Y-68591873D01*
X122076464Y-68591872D01*
X122076461Y-68591866D01*
X122005276Y-68485331D01*
X122005273Y-68485327D01*
X121914672Y-68394726D01*
X121914668Y-68394723D01*
X121808133Y-68323538D01*
X121808123Y-68323533D01*
X121724478Y-68288886D01*
X121670075Y-68245045D01*
X121648010Y-68178751D01*
X121665289Y-68111051D01*
X121716427Y-68063441D01*
X121759787Y-68050921D01*
X121764057Y-68050500D01*
X121764069Y-68050500D01*
X121889744Y-68025501D01*
X122008127Y-67976465D01*
X122114669Y-67905276D01*
X122205276Y-67814669D01*
X122276465Y-67708127D01*
X122325501Y-67589744D01*
X122350500Y-67464069D01*
X122350500Y-67335931D01*
X122350500Y-67335928D01*
X122325502Y-67210261D01*
X122325501Y-67210260D01*
X122325501Y-67210256D01*
X122276465Y-67091873D01*
X122276464Y-67091872D01*
X122276461Y-67091866D01*
X122205276Y-66985331D01*
X122205273Y-66985327D01*
X122114672Y-66894726D01*
X122114668Y-66894723D01*
X122008133Y-66823538D01*
X122008124Y-66823533D01*
X121889744Y-66774499D01*
X121889738Y-66774497D01*
X121764071Y-66749500D01*
X121764069Y-66749500D01*
X121635931Y-66749500D01*
X121635929Y-66749500D01*
X121510261Y-66774497D01*
X121510255Y-66774499D01*
X121391875Y-66823533D01*
X121391866Y-66823538D01*
X121285331Y-66894723D01*
X121285327Y-66894726D01*
X121194726Y-66985327D01*
X121194723Y-66985331D01*
X121123538Y-67091866D01*
X121123533Y-67091875D01*
X121074499Y-67210255D01*
X121074497Y-67210261D01*
X121049500Y-67335928D01*
X121049500Y-67335931D01*
X121049500Y-67464069D01*
X121049500Y-67464071D01*
X121049499Y-67464071D01*
X121074497Y-67589738D01*
X121074499Y-67589744D01*
X121123533Y-67708124D01*
X121123538Y-67708133D01*
X121194723Y-67814668D01*
X121194726Y-67814672D01*
X121285327Y-67905273D01*
X121285331Y-67905276D01*
X121391866Y-67976461D01*
X121391879Y-67976468D01*
X121475520Y-68011113D01*
X121529924Y-68054954D01*
X121551989Y-68121248D01*
X121534710Y-68188947D01*
X121483573Y-68236558D01*
X121440225Y-68249077D01*
X121435926Y-68249500D01*
X121310261Y-68274497D01*
X121310255Y-68274499D01*
X121191875Y-68323533D01*
X121191866Y-68323538D01*
X121085331Y-68394723D01*
X121085327Y-68394726D01*
X120994726Y-68485327D01*
X120994723Y-68485331D01*
X120923538Y-68591866D01*
X120923533Y-68591875D01*
X120874499Y-68710255D01*
X120874497Y-68710261D01*
X120849500Y-68835928D01*
X120849500Y-68835931D01*
X120849500Y-68964069D01*
X120849500Y-68964071D01*
X120849499Y-68964071D01*
X90100000Y-68964071D01*
X90100000Y-66193848D01*
X124717500Y-66193848D01*
X124717500Y-66403151D01*
X124758329Y-66608412D01*
X124758331Y-66608420D01*
X124838423Y-66801780D01*
X124954703Y-66975806D01*
X125102693Y-67123796D01*
X125276719Y-67240076D01*
X125373399Y-67280122D01*
X125470080Y-67320169D01*
X125675348Y-67360999D01*
X125675352Y-67361000D01*
X125675353Y-67361000D01*
X125884648Y-67361000D01*
X125884649Y-67360999D01*
X126089920Y-67320169D01*
X126283282Y-67240075D01*
X126457304Y-67123798D01*
X126605298Y-66975804D01*
X126721575Y-66801782D01*
X126725680Y-66791873D01*
X126743231Y-66749500D01*
X126801669Y-66608420D01*
X126842500Y-66403147D01*
X126842500Y-66193853D01*
X126842499Y-66193848D01*
X139957500Y-66193848D01*
X139957500Y-66403151D01*
X139998329Y-66608412D01*
X139998331Y-66608420D01*
X140078423Y-66801780D01*
X140194703Y-66975806D01*
X140342693Y-67123796D01*
X140516719Y-67240076D01*
X140613399Y-67280122D01*
X140710080Y-67320169D01*
X140915348Y-67360999D01*
X140915352Y-67361000D01*
X140915353Y-67361000D01*
X141124648Y-67361000D01*
X141124649Y-67360999D01*
X141329920Y-67320169D01*
X141523282Y-67240075D01*
X141697304Y-67123798D01*
X141845298Y-66975804D01*
X141961575Y-66801782D01*
X141965680Y-66791873D01*
X141983231Y-66749500D01*
X142041669Y-66608420D01*
X142082500Y-66403147D01*
X142082500Y-66193853D01*
X142041669Y-65988580D01*
X141969632Y-65814669D01*
X141961576Y-65795219D01*
X141845296Y-65621193D01*
X141697306Y-65473203D01*
X141523280Y-65356923D01*
X141329920Y-65276831D01*
X141329912Y-65276829D01*
X141124651Y-65236000D01*
X141124647Y-65236000D01*
X140915353Y-65236000D01*
X140915348Y-65236000D01*
X140710087Y-65276829D01*
X140710079Y-65276831D01*
X140516719Y-65356923D01*
X140342693Y-65473203D01*
X140194703Y-65621193D01*
X140078423Y-65795219D01*
X139998331Y-65988579D01*
X139998329Y-65988587D01*
X139957500Y-66193848D01*
X126842499Y-66193848D01*
X126801669Y-65988580D01*
X126729632Y-65814669D01*
X126721576Y-65795219D01*
X126605296Y-65621193D01*
X126457306Y-65473203D01*
X126283280Y-65356923D01*
X126089920Y-65276831D01*
X126089912Y-65276829D01*
X125884651Y-65236000D01*
X125884647Y-65236000D01*
X125675353Y-65236000D01*
X125675348Y-65236000D01*
X125470087Y-65276829D01*
X125470079Y-65276831D01*
X125276719Y-65356923D01*
X125102693Y-65473203D01*
X124954703Y-65621193D01*
X124838423Y-65795219D01*
X124758331Y-65988579D01*
X124758329Y-65988587D01*
X124717500Y-66193848D01*
X90100000Y-66193848D01*
X90100000Y-63653848D01*
X124717500Y-63653848D01*
X124717500Y-63863151D01*
X124758329Y-64068412D01*
X124758331Y-64068420D01*
X124838423Y-64261780D01*
X124954703Y-64435806D01*
X125102693Y-64583796D01*
X125276719Y-64700076D01*
X125370939Y-64739103D01*
X125470080Y-64780169D01*
X125675348Y-64820999D01*
X125675352Y-64821000D01*
X125675353Y-64821000D01*
X125884648Y-64821000D01*
X125884649Y-64820999D01*
X126089920Y-64780169D01*
X126283282Y-64700075D01*
X126457304Y-64583798D01*
X126605298Y-64435804D01*
X126721575Y-64261782D01*
X126801669Y-64068420D01*
X126842500Y-63863147D01*
X126842500Y-63653853D01*
X126842499Y-63653848D01*
X139957500Y-63653848D01*
X139957500Y-63863151D01*
X139998329Y-64068412D01*
X139998331Y-64068420D01*
X140078423Y-64261780D01*
X140194703Y-64435806D01*
X140342693Y-64583796D01*
X140516719Y-64700076D01*
X140610939Y-64739103D01*
X140710080Y-64780169D01*
X140915348Y-64820999D01*
X140915352Y-64821000D01*
X140915353Y-64821000D01*
X141124648Y-64821000D01*
X141124649Y-64820999D01*
X141329920Y-64780169D01*
X141523282Y-64700075D01*
X141697304Y-64583798D01*
X141845298Y-64435804D01*
X141961575Y-64261782D01*
X142041669Y-64068420D01*
X142082500Y-63863147D01*
X142082500Y-63653853D01*
X142041669Y-63448580D01*
X142000628Y-63349500D01*
X141961576Y-63255219D01*
X141845296Y-63081193D01*
X141697306Y-62933203D01*
X141523280Y-62816923D01*
X141329920Y-62736831D01*
X141329912Y-62736829D01*
X141124651Y-62696000D01*
X141124647Y-62696000D01*
X140915353Y-62696000D01*
X140915348Y-62696000D01*
X140710087Y-62736829D01*
X140710079Y-62736831D01*
X140516719Y-62816923D01*
X140342693Y-62933203D01*
X140194703Y-63081193D01*
X140078423Y-63255219D01*
X139998331Y-63448579D01*
X139998329Y-63448587D01*
X139957500Y-63653848D01*
X126842499Y-63653848D01*
X126801669Y-63448580D01*
X126760628Y-63349500D01*
X126721576Y-63255219D01*
X126605296Y-63081193D01*
X126457306Y-62933203D01*
X126283280Y-62816923D01*
X126089920Y-62736831D01*
X126089912Y-62736829D01*
X125884651Y-62696000D01*
X125884647Y-62696000D01*
X125675353Y-62696000D01*
X125675348Y-62696000D01*
X125470087Y-62736829D01*
X125470079Y-62736831D01*
X125276719Y-62816923D01*
X125102693Y-62933203D01*
X124954703Y-63081193D01*
X124838423Y-63255219D01*
X124758331Y-63448579D01*
X124758329Y-63448587D01*
X124717500Y-63653848D01*
X90100000Y-63653848D01*
X90100000Y-61264071D01*
X117349499Y-61264071D01*
X117374497Y-61389738D01*
X117374499Y-61389744D01*
X117423533Y-61508124D01*
X117423538Y-61508133D01*
X117494723Y-61614668D01*
X117494726Y-61614672D01*
X117585327Y-61705273D01*
X117585331Y-61705276D01*
X117691866Y-61776461D01*
X117691872Y-61776464D01*
X117691873Y-61776465D01*
X117810256Y-61825501D01*
X117810260Y-61825501D01*
X117810261Y-61825502D01*
X117935928Y-61850500D01*
X117935931Y-61850500D01*
X118064071Y-61850500D01*
X118148615Y-61833682D01*
X118189744Y-61825501D01*
X118308127Y-61776465D01*
X118414669Y-61705276D01*
X118505276Y-61614669D01*
X118576465Y-61508127D01*
X118625501Y-61389744D01*
X118650500Y-61264069D01*
X118650500Y-61135931D01*
X118648425Y-61125501D01*
X118646107Y-61113848D01*
X124717500Y-61113848D01*
X124717500Y-61323151D01*
X124758329Y-61528412D01*
X124758331Y-61528420D01*
X124838423Y-61721780D01*
X124954703Y-61895806D01*
X125102693Y-62043796D01*
X125276719Y-62160076D01*
X125360367Y-62194724D01*
X125470080Y-62240169D01*
X125675348Y-62280999D01*
X125675352Y-62281000D01*
X125675353Y-62281000D01*
X125884648Y-62281000D01*
X125884649Y-62280999D01*
X126089920Y-62240169D01*
X126283282Y-62160075D01*
X126457304Y-62043798D01*
X126605298Y-61895804D01*
X126721575Y-61721782D01*
X126801669Y-61528420D01*
X126842500Y-61323147D01*
X126842500Y-61113853D01*
X126842499Y-61113848D01*
X139957500Y-61113848D01*
X139957500Y-61323151D01*
X139998329Y-61528412D01*
X139998331Y-61528420D01*
X140078423Y-61721780D01*
X140194703Y-61895806D01*
X140342693Y-62043796D01*
X140516719Y-62160076D01*
X140600367Y-62194724D01*
X140710080Y-62240169D01*
X140915348Y-62280999D01*
X140915352Y-62281000D01*
X140915353Y-62281000D01*
X141124648Y-62281000D01*
X141124649Y-62280999D01*
X141329920Y-62240169D01*
X141523282Y-62160075D01*
X141697304Y-62043798D01*
X141845298Y-61895804D01*
X141961575Y-61721782D01*
X142041669Y-61528420D01*
X142082500Y-61323147D01*
X142082500Y-61113853D01*
X142041669Y-60908580D01*
X141990617Y-60785331D01*
X141961576Y-60715219D01*
X141845296Y-60541193D01*
X141697306Y-60393203D01*
X141523280Y-60276923D01*
X141329920Y-60196831D01*
X141329912Y-60196829D01*
X141124651Y-60156000D01*
X141124647Y-60156000D01*
X140915353Y-60156000D01*
X140915348Y-60156000D01*
X140710087Y-60196829D01*
X140710079Y-60196831D01*
X140516719Y-60276923D01*
X140342693Y-60393203D01*
X140194703Y-60541193D01*
X140078423Y-60715219D01*
X139998331Y-60908579D01*
X139998329Y-60908587D01*
X139957500Y-61113848D01*
X126842499Y-61113848D01*
X126801669Y-60908580D01*
X126750617Y-60785331D01*
X126721576Y-60715219D01*
X126605296Y-60541193D01*
X126457306Y-60393203D01*
X126283280Y-60276923D01*
X126089920Y-60196831D01*
X126089912Y-60196829D01*
X125884651Y-60156000D01*
X125884647Y-60156000D01*
X125675353Y-60156000D01*
X125675348Y-60156000D01*
X125470087Y-60196829D01*
X125470079Y-60196831D01*
X125276719Y-60276923D01*
X125102693Y-60393203D01*
X124954703Y-60541193D01*
X124838423Y-60715219D01*
X124758331Y-60908579D01*
X124758329Y-60908587D01*
X124717500Y-61113848D01*
X118646107Y-61113848D01*
X118625502Y-61010261D01*
X118625501Y-61010260D01*
X118625501Y-61010256D01*
X118576465Y-60891873D01*
X118576464Y-60891872D01*
X118576461Y-60891866D01*
X118505276Y-60785331D01*
X118505273Y-60785327D01*
X118414672Y-60694726D01*
X118414668Y-60694723D01*
X118308133Y-60623538D01*
X118308124Y-60623533D01*
X118189744Y-60574499D01*
X118189738Y-60574497D01*
X118064071Y-60549500D01*
X118064069Y-60549500D01*
X117935931Y-60549500D01*
X117935929Y-60549500D01*
X117810261Y-60574497D01*
X117810255Y-60574499D01*
X117691875Y-60623533D01*
X117691866Y-60623538D01*
X117585331Y-60694723D01*
X117585327Y-60694726D01*
X117494726Y-60785327D01*
X117494723Y-60785331D01*
X117423538Y-60891866D01*
X117423533Y-60891875D01*
X117374499Y-61010255D01*
X117374497Y-61010261D01*
X117349500Y-61135928D01*
X117349500Y-61135931D01*
X117349500Y-61264069D01*
X117349500Y-61264071D01*
X117349499Y-61264071D01*
X90100000Y-61264071D01*
X90100000Y-58764071D01*
X114249499Y-58764071D01*
X114274497Y-58889738D01*
X114274499Y-58889744D01*
X114323533Y-59008124D01*
X114323538Y-59008133D01*
X114394723Y-59114668D01*
X114394726Y-59114672D01*
X114485327Y-59205273D01*
X114485331Y-59205276D01*
X114591866Y-59276461D01*
X114591872Y-59276464D01*
X114591873Y-59276465D01*
X114710256Y-59325501D01*
X114710260Y-59325501D01*
X114710261Y-59325502D01*
X114835928Y-59350500D01*
X114835931Y-59350500D01*
X114964071Y-59350500D01*
X115058339Y-59331748D01*
X115089744Y-59325501D01*
X115208127Y-59276465D01*
X115314669Y-59205276D01*
X115405276Y-59114669D01*
X115476465Y-59008127D01*
X115525501Y-58889744D01*
X115546271Y-58785331D01*
X115550500Y-58764071D01*
X115550500Y-58635929D01*
X115541752Y-58591954D01*
X115541752Y-58591952D01*
X115538151Y-58573848D01*
X124717500Y-58573848D01*
X124717500Y-58783151D01*
X124758329Y-58988412D01*
X124758331Y-58988420D01*
X124838423Y-59181780D01*
X124954703Y-59355806D01*
X125102693Y-59503796D01*
X125276719Y-59620076D01*
X125373399Y-59660122D01*
X125470080Y-59700169D01*
X125675348Y-59740999D01*
X125675352Y-59741000D01*
X125675353Y-59741000D01*
X125884648Y-59741000D01*
X125884649Y-59740999D01*
X126089920Y-59700169D01*
X126283282Y-59620075D01*
X126457304Y-59503798D01*
X126605298Y-59355804D01*
X126721575Y-59181782D01*
X126801669Y-58988420D01*
X126842500Y-58783147D01*
X126842500Y-58573853D01*
X126801669Y-58368580D01*
X126741589Y-58223535D01*
X126721576Y-58175219D01*
X126605296Y-58001193D01*
X126457306Y-57853203D01*
X126283280Y-57736923D01*
X126089920Y-57656831D01*
X126089912Y-57656829D01*
X125884651Y-57616000D01*
X125884647Y-57616000D01*
X125675353Y-57616000D01*
X125675348Y-57616000D01*
X125470087Y-57656829D01*
X125470079Y-57656831D01*
X125276719Y-57736923D01*
X125102693Y-57853203D01*
X124954703Y-58001193D01*
X124838423Y-58175219D01*
X124758331Y-58368579D01*
X124758329Y-58368587D01*
X124717500Y-58573848D01*
X115538151Y-58573848D01*
X115533307Y-58549500D01*
X115525501Y-58510256D01*
X115476465Y-58391873D01*
X115476464Y-58391872D01*
X115476461Y-58391866D01*
X115405276Y-58285331D01*
X115405273Y-58285327D01*
X115314672Y-58194726D01*
X115314668Y-58194723D01*
X115208133Y-58123538D01*
X115208124Y-58123533D01*
X115089744Y-58074499D01*
X115089738Y-58074497D01*
X114964071Y-58049500D01*
X114964069Y-58049500D01*
X114835931Y-58049500D01*
X114835929Y-58049500D01*
X114710261Y-58074497D01*
X114710255Y-58074499D01*
X114591875Y-58123533D01*
X114591866Y-58123538D01*
X114485331Y-58194723D01*
X114485327Y-58194726D01*
X114394726Y-58285327D01*
X114394723Y-58285331D01*
X114323538Y-58391866D01*
X114323533Y-58391875D01*
X114274499Y-58510255D01*
X114274497Y-58510261D01*
X114249500Y-58635928D01*
X114249500Y-58635929D01*
X114249500Y-58635931D01*
X114249500Y-58764069D01*
X114249500Y-58764071D01*
X114249499Y-58764071D01*
X90100000Y-58764071D01*
X90100000Y-56264071D01*
X113349499Y-56264071D01*
X113374497Y-56389738D01*
X113374499Y-56389744D01*
X113423533Y-56508124D01*
X113423538Y-56508133D01*
X113494723Y-56614668D01*
X113494726Y-56614672D01*
X113585327Y-56705273D01*
X113585331Y-56705276D01*
X113691866Y-56776461D01*
X113691872Y-56776464D01*
X113691873Y-56776465D01*
X113810256Y-56825501D01*
X113810260Y-56825501D01*
X113810261Y-56825502D01*
X113935928Y-56850500D01*
X113935931Y-56850500D01*
X114064071Y-56850500D01*
X114148615Y-56833682D01*
X114189744Y-56825501D01*
X114308127Y-56776465D01*
X114414669Y-56705276D01*
X114505276Y-56614669D01*
X114576465Y-56508127D01*
X114625501Y-56389744D01*
X114637850Y-56327665D01*
X114650500Y-56264071D01*
X114650500Y-56135928D01*
X114633796Y-56051953D01*
X114630194Y-56033848D01*
X124717500Y-56033848D01*
X124717500Y-56243151D01*
X124758329Y-56448412D01*
X124758331Y-56448420D01*
X124838423Y-56641780D01*
X124954703Y-56815806D01*
X125102693Y-56963796D01*
X125276719Y-57080076D01*
X125373399Y-57120122D01*
X125470080Y-57160169D01*
X125675348Y-57200999D01*
X125675352Y-57201000D01*
X125675353Y-57201000D01*
X125884648Y-57201000D01*
X125884649Y-57200999D01*
X126089920Y-57160169D01*
X126283282Y-57080075D01*
X126457304Y-56963798D01*
X126605298Y-56815804D01*
X126721575Y-56641782D01*
X126801669Y-56448420D01*
X126842500Y-56243147D01*
X126842500Y-56039178D01*
X139758000Y-56039178D01*
X139758000Y-56237821D01*
X139789075Y-56434020D01*
X139789075Y-56434023D01*
X139850457Y-56622937D01*
X139940641Y-56799932D01*
X139967730Y-56837215D01*
X139967731Y-56837216D01*
X140582352Y-56222594D01*
X140605792Y-56310071D01*
X140664311Y-56411430D01*
X140747070Y-56494189D01*
X140848429Y-56552708D01*
X140935905Y-56576147D01*
X140321283Y-57190768D01*
X140321283Y-57190769D01*
X140358567Y-57217858D01*
X140535562Y-57308042D01*
X140724476Y-57369424D01*
X140724480Y-57369425D01*
X140835025Y-57386933D01*
X140898160Y-57416862D01*
X140935092Y-57476173D01*
X140934094Y-57546035D01*
X140895485Y-57604268D01*
X140839820Y-57631023D01*
X140710085Y-57656829D01*
X140710079Y-57656831D01*
X140516719Y-57736923D01*
X140342693Y-57853203D01*
X140194703Y-58001193D01*
X140078423Y-58175219D01*
X139998331Y-58368579D01*
X139998329Y-58368587D01*
X139957500Y-58573848D01*
X139957500Y-58783151D01*
X139998329Y-58988412D01*
X139998331Y-58988420D01*
X140078423Y-59181780D01*
X140194703Y-59355806D01*
X140342693Y-59503796D01*
X140516719Y-59620076D01*
X140613399Y-59660122D01*
X140710080Y-59700169D01*
X140915348Y-59740999D01*
X140915352Y-59741000D01*
X140915353Y-59741000D01*
X141124648Y-59741000D01*
X141124649Y-59740999D01*
X141329920Y-59700169D01*
X141523282Y-59620075D01*
X141697304Y-59503798D01*
X141845298Y-59355804D01*
X141961575Y-59181782D01*
X142041669Y-58988420D01*
X142082500Y-58783147D01*
X142082500Y-58764071D01*
X143449499Y-58764071D01*
X143474497Y-58889738D01*
X143474499Y-58889744D01*
X143523533Y-59008124D01*
X143523538Y-59008133D01*
X143594723Y-59114668D01*
X143594726Y-59114672D01*
X143689638Y-59209584D01*
X143688461Y-59210760D01*
X143723292Y-59261903D01*
X143725156Y-59331748D01*
X143689631Y-59390409D01*
X143689638Y-59390416D01*
X143689610Y-59390443D01*
X143688963Y-59391513D01*
X143685803Y-59394250D01*
X143594726Y-59485327D01*
X143594723Y-59485331D01*
X143523538Y-59591866D01*
X143523533Y-59591875D01*
X143474499Y-59710255D01*
X143474497Y-59710261D01*
X143449500Y-59835928D01*
X143449500Y-59835931D01*
X143449500Y-59964069D01*
X143449500Y-59964071D01*
X143449499Y-59964071D01*
X143474497Y-60089738D01*
X143474499Y-60089744D01*
X143523533Y-60208124D01*
X143523538Y-60208133D01*
X143594723Y-60314668D01*
X143594726Y-60314672D01*
X143685327Y-60405273D01*
X143685331Y-60405276D01*
X143791866Y-60476461D01*
X143791872Y-60476464D01*
X143791873Y-60476465D01*
X143910256Y-60525501D01*
X143910260Y-60525501D01*
X143910261Y-60525502D01*
X144035928Y-60550500D01*
X144035931Y-60550500D01*
X144164071Y-60550500D01*
X144248615Y-60533682D01*
X144289744Y-60525501D01*
X144408127Y-60476465D01*
X144514669Y-60405276D01*
X144605276Y-60314669D01*
X144676465Y-60208127D01*
X144725501Y-60089744D01*
X144750500Y-59964069D01*
X144750500Y-59835931D01*
X144750500Y-59835928D01*
X144725502Y-59710261D01*
X144725501Y-59710260D01*
X144725501Y-59710256D01*
X144676465Y-59591873D01*
X144676464Y-59591872D01*
X144676461Y-59591866D01*
X144605276Y-59485331D01*
X144605273Y-59485327D01*
X144510362Y-59390416D01*
X144511540Y-59389237D01*
X144476713Y-59338114D01*
X144474838Y-59268270D01*
X144510363Y-59209585D01*
X144510362Y-59209584D01*
X144510370Y-59209575D01*
X144511022Y-59208499D01*
X144514202Y-59205743D01*
X144605273Y-59114672D01*
X144605276Y-59114669D01*
X144676465Y-59008127D01*
X144725501Y-58889744D01*
X144746271Y-58785331D01*
X144750500Y-58764071D01*
X144750500Y-58635928D01*
X144725502Y-58510261D01*
X144725501Y-58510260D01*
X144725501Y-58510256D01*
X144676465Y-58391873D01*
X144676464Y-58391872D01*
X144676461Y-58391866D01*
X144605276Y-58285331D01*
X144605273Y-58285327D01*
X144514672Y-58194726D01*
X144514668Y-58194723D01*
X144408133Y-58123538D01*
X144408124Y-58123533D01*
X144289744Y-58074499D01*
X144289738Y-58074497D01*
X144164071Y-58049500D01*
X144164069Y-58049500D01*
X144035931Y-58049500D01*
X144035929Y-58049500D01*
X143910261Y-58074497D01*
X143910255Y-58074499D01*
X143791875Y-58123533D01*
X143791866Y-58123538D01*
X143685331Y-58194723D01*
X143685327Y-58194726D01*
X143594726Y-58285327D01*
X143594723Y-58285331D01*
X143523538Y-58391866D01*
X143523533Y-58391875D01*
X143474499Y-58510255D01*
X143474497Y-58510261D01*
X143449500Y-58635928D01*
X143449500Y-58635929D01*
X143449500Y-58635931D01*
X143449500Y-58764069D01*
X143449500Y-58764071D01*
X143449499Y-58764071D01*
X142082500Y-58764071D01*
X142082500Y-58573853D01*
X142041669Y-58368580D01*
X141981589Y-58223535D01*
X141961576Y-58175219D01*
X141845296Y-58001193D01*
X141697306Y-57853203D01*
X141523280Y-57736923D01*
X141329920Y-57656831D01*
X141329914Y-57656829D01*
X141200179Y-57631023D01*
X141138268Y-57598638D01*
X141103694Y-57537922D01*
X141107434Y-57468153D01*
X141148301Y-57411481D01*
X141204974Y-57386932D01*
X141315527Y-57369422D01*
X141504437Y-57308042D01*
X141681425Y-57217862D01*
X141718716Y-57190768D01*
X141104095Y-56576147D01*
X141191571Y-56552708D01*
X141292930Y-56494189D01*
X141375689Y-56411430D01*
X141434208Y-56310071D01*
X141457647Y-56222594D01*
X142072268Y-56837215D01*
X142099362Y-56799925D01*
X142189542Y-56622937D01*
X142250924Y-56434023D01*
X142250924Y-56434020D01*
X142282000Y-56237821D01*
X142282000Y-56039178D01*
X142250924Y-55842979D01*
X142250924Y-55842976D01*
X142189542Y-55654062D01*
X142099358Y-55477067D01*
X142072268Y-55439783D01*
X141457647Y-56054404D01*
X141434208Y-55966929D01*
X141375689Y-55865570D01*
X141292930Y-55782811D01*
X141191571Y-55724292D01*
X141104094Y-55700852D01*
X141718716Y-55086231D01*
X141718715Y-55086230D01*
X141681432Y-55059141D01*
X141504437Y-54968957D01*
X141315522Y-54907575D01*
X141204973Y-54890066D01*
X141141838Y-54860137D01*
X141104907Y-54800825D01*
X141105905Y-54730963D01*
X141144515Y-54672730D01*
X141200180Y-54645976D01*
X141246042Y-54636853D01*
X141329920Y-54620169D01*
X141523282Y-54540075D01*
X141697304Y-54423798D01*
X141845298Y-54275804D01*
X141961575Y-54101782D01*
X142041669Y-53908420D01*
X142082500Y-53703147D01*
X142082500Y-53493853D01*
X142041669Y-53288580D01*
X141965287Y-53104179D01*
X141961576Y-53095219D01*
X141845296Y-52921193D01*
X141697306Y-52773203D01*
X141523280Y-52656923D01*
X141329920Y-52576831D01*
X141329912Y-52576829D01*
X141124651Y-52536000D01*
X141124647Y-52536000D01*
X140915353Y-52536000D01*
X140915348Y-52536000D01*
X140710087Y-52576829D01*
X140710079Y-52576831D01*
X140516719Y-52656923D01*
X140342693Y-52773203D01*
X140194703Y-52921193D01*
X140078423Y-53095219D01*
X139998331Y-53288579D01*
X139998329Y-53288587D01*
X139957500Y-53493848D01*
X139957500Y-53703151D01*
X139998329Y-53908412D01*
X139998331Y-53908420D01*
X140078423Y-54101780D01*
X140194703Y-54275806D01*
X140342693Y-54423796D01*
X140516719Y-54540076D01*
X140613399Y-54580122D01*
X140710080Y-54620169D01*
X140765742Y-54631240D01*
X140839819Y-54645976D01*
X140901730Y-54678361D01*
X140936304Y-54739076D01*
X140932565Y-54808846D01*
X140891699Y-54865518D01*
X140835026Y-54890066D01*
X140724479Y-54907575D01*
X140724476Y-54907575D01*
X140535562Y-54968957D01*
X140358564Y-55059143D01*
X140321283Y-55086229D01*
X140321282Y-55086230D01*
X140935906Y-55700852D01*
X140848429Y-55724292D01*
X140747070Y-55782811D01*
X140664311Y-55865570D01*
X140605792Y-55966929D01*
X140582352Y-56054405D01*
X139967730Y-55439782D01*
X139967729Y-55439783D01*
X139940643Y-55477064D01*
X139850457Y-55654062D01*
X139789075Y-55842976D01*
X139789075Y-55842979D01*
X139758000Y-56039178D01*
X126842500Y-56039178D01*
X126842500Y-56033853D01*
X126801669Y-55828580D01*
X126758471Y-55724292D01*
X126721576Y-55635219D01*
X126605296Y-55461193D01*
X126457306Y-55313203D01*
X126283280Y-55196923D01*
X126089920Y-55116831D01*
X126089912Y-55116829D01*
X125884651Y-55076000D01*
X125884647Y-55076000D01*
X125675353Y-55076000D01*
X125675348Y-55076000D01*
X125470087Y-55116829D01*
X125470079Y-55116831D01*
X125276719Y-55196923D01*
X125102693Y-55313203D01*
X124954703Y-55461193D01*
X124838423Y-55635219D01*
X124758331Y-55828579D01*
X124758329Y-55828587D01*
X124717500Y-56033848D01*
X114630194Y-56033848D01*
X114625502Y-56010260D01*
X114625501Y-56010258D01*
X114625501Y-56010256D01*
X114576465Y-55891873D01*
X114576464Y-55891872D01*
X114576461Y-55891866D01*
X114505276Y-55785331D01*
X114505273Y-55785327D01*
X114414672Y-55694726D01*
X114414668Y-55694723D01*
X114308133Y-55623538D01*
X114308124Y-55623533D01*
X114189744Y-55574499D01*
X114189738Y-55574497D01*
X114064071Y-55549500D01*
X114064069Y-55549500D01*
X113935931Y-55549500D01*
X113935929Y-55549500D01*
X113810261Y-55574497D01*
X113810255Y-55574499D01*
X113691875Y-55623533D01*
X113691866Y-55623538D01*
X113585331Y-55694723D01*
X113585327Y-55694726D01*
X113494726Y-55785327D01*
X113494723Y-55785331D01*
X113423538Y-55891866D01*
X113423533Y-55891875D01*
X113374499Y-56010255D01*
X113374497Y-56010261D01*
X113349500Y-56135928D01*
X113349500Y-56135931D01*
X113349500Y-56264069D01*
X113349500Y-56264071D01*
X113349499Y-56264071D01*
X90100000Y-56264071D01*
X90100000Y-54364071D01*
X91349499Y-54364071D01*
X91374497Y-54489738D01*
X91374499Y-54489744D01*
X91423533Y-54608124D01*
X91423538Y-54608133D01*
X91494723Y-54714668D01*
X91494726Y-54714672D01*
X91585327Y-54805273D01*
X91585331Y-54805276D01*
X91691866Y-54876461D01*
X91691872Y-54876464D01*
X91691873Y-54876465D01*
X91810256Y-54925501D01*
X91810260Y-54925501D01*
X91810261Y-54925502D01*
X91935928Y-54950500D01*
X91935931Y-54950500D01*
X92064071Y-54950500D01*
X92148615Y-54933682D01*
X92189744Y-54925501D01*
X92308127Y-54876465D01*
X92414669Y-54805276D01*
X92505276Y-54714669D01*
X92576465Y-54608127D01*
X92625501Y-54489744D01*
X92644447Y-54394500D01*
X92650500Y-54364071D01*
X92650500Y-54235928D01*
X92625502Y-54110261D01*
X92625501Y-54110260D01*
X92625501Y-54110256D01*
X92576465Y-53991873D01*
X92576464Y-53991872D01*
X92576461Y-53991866D01*
X92505276Y-53885331D01*
X92505273Y-53885327D01*
X92414672Y-53794726D01*
X92414668Y-53794723D01*
X92308133Y-53723538D01*
X92308124Y-53723533D01*
X92189744Y-53674499D01*
X92189738Y-53674497D01*
X92064071Y-53649500D01*
X92064069Y-53649500D01*
X91935931Y-53649500D01*
X91935929Y-53649500D01*
X91810261Y-53674497D01*
X91810255Y-53674499D01*
X91691875Y-53723533D01*
X91691866Y-53723538D01*
X91585331Y-53794723D01*
X91585327Y-53794726D01*
X91494726Y-53885327D01*
X91494723Y-53885331D01*
X91423538Y-53991866D01*
X91423533Y-53991875D01*
X91374499Y-54110255D01*
X91374497Y-54110261D01*
X91349500Y-54235928D01*
X91349500Y-54235931D01*
X91349500Y-54364069D01*
X91349500Y-54364071D01*
X91349499Y-54364071D01*
X90100000Y-54364071D01*
X90100000Y-53493848D01*
X124717500Y-53493848D01*
X124717500Y-53703151D01*
X124758329Y-53908412D01*
X124758331Y-53908420D01*
X124838423Y-54101780D01*
X124954703Y-54275806D01*
X125102693Y-54423796D01*
X125276719Y-54540076D01*
X125373399Y-54580122D01*
X125470080Y-54620169D01*
X125599822Y-54645976D01*
X125675348Y-54660999D01*
X125675352Y-54661000D01*
X125675353Y-54661000D01*
X125884648Y-54661000D01*
X125884649Y-54660999D01*
X126089920Y-54620169D01*
X126283282Y-54540075D01*
X126457304Y-54423798D01*
X126605298Y-54275804D01*
X126721575Y-54101782D01*
X126801669Y-53908420D01*
X126842500Y-53703147D01*
X126842500Y-53493853D01*
X126801669Y-53288580D01*
X126725287Y-53104179D01*
X126721576Y-53095219D01*
X126605296Y-52921193D01*
X126457306Y-52773203D01*
X126283280Y-52656923D01*
X126089920Y-52576831D01*
X126089912Y-52576829D01*
X125884651Y-52536000D01*
X125884647Y-52536000D01*
X125675353Y-52536000D01*
X125675348Y-52536000D01*
X125470087Y-52576829D01*
X125470079Y-52576831D01*
X125276719Y-52656923D01*
X125102693Y-52773203D01*
X124954703Y-52921193D01*
X124838423Y-53095219D01*
X124758331Y-53288579D01*
X124758329Y-53288587D01*
X124717500Y-53493848D01*
X90100000Y-53493848D01*
X90100000Y-52264071D01*
X93549499Y-52264071D01*
X93574497Y-52389738D01*
X93574499Y-52389744D01*
X93623533Y-52508124D01*
X93623538Y-52508133D01*
X93694723Y-52614668D01*
X93694726Y-52614672D01*
X93785327Y-52705273D01*
X93785331Y-52705276D01*
X93891866Y-52776461D01*
X93891872Y-52776464D01*
X93891873Y-52776465D01*
X94010256Y-52825501D01*
X94010260Y-52825501D01*
X94010261Y-52825502D01*
X94135928Y-52850500D01*
X94135931Y-52850500D01*
X94264071Y-52850500D01*
X94348615Y-52833682D01*
X94389744Y-52825501D01*
X94508127Y-52776465D01*
X94614669Y-52705276D01*
X94705276Y-52614669D01*
X94776465Y-52508127D01*
X94825501Y-52389744D01*
X94850500Y-52264069D01*
X94850500Y-52135931D01*
X94850500Y-52135928D01*
X94825502Y-52010261D01*
X94825501Y-52010260D01*
X94825501Y-52010256D01*
X94776465Y-51891873D01*
X94776464Y-51891872D01*
X94776461Y-51891866D01*
X94705276Y-51785331D01*
X94705273Y-51785327D01*
X94614672Y-51694726D01*
X94614668Y-51694723D01*
X94508133Y-51623538D01*
X94508124Y-51623533D01*
X94389744Y-51574499D01*
X94389738Y-51574497D01*
X94264071Y-51549500D01*
X94264069Y-51549500D01*
X94135931Y-51549500D01*
X94135929Y-51549500D01*
X94010261Y-51574497D01*
X94010255Y-51574499D01*
X93891875Y-51623533D01*
X93891866Y-51623538D01*
X93785331Y-51694723D01*
X93785327Y-51694726D01*
X93694726Y-51785327D01*
X93694723Y-51785331D01*
X93623538Y-51891866D01*
X93623533Y-51891875D01*
X93574499Y-52010255D01*
X93574497Y-52010261D01*
X93549500Y-52135928D01*
X93549500Y-52135931D01*
X93549500Y-52264069D01*
X93549500Y-52264071D01*
X93549499Y-52264071D01*
X90100000Y-52264071D01*
X90100000Y-50731226D01*
X90119685Y-50664187D01*
X90172489Y-50618432D01*
X90224000Y-50607226D01*
X149276000Y-50607226D01*
X149343039Y-50626911D01*
G37*
%TD.AperFunction*%
%TD*%
%TA.AperFunction,Conductor*%
%TO.N,GND*%
G36*
X88961010Y-50607197D02*
G01*
X88995948Y-50612229D01*
X89010943Y-50616636D01*
X89025934Y-50626273D01*
X89043022Y-50631292D01*
X89069695Y-50654406D01*
X89070882Y-50655776D01*
X89098334Y-50710630D01*
X89099977Y-50718187D01*
X89102808Y-50744555D01*
X89098825Y-71245325D01*
X89093796Y-71280258D01*
X89089884Y-71293572D01*
X89080246Y-71308561D01*
X89075227Y-71325656D01*
X89061747Y-71337336D01*
X89052099Y-71352343D01*
X89035884Y-71359745D01*
X89022423Y-71371410D01*
X88988558Y-71381353D01*
X88985247Y-71381829D01*
X88930087Y-71377280D01*
X88928221Y-71376688D01*
X88916743Y-71371979D01*
X88916089Y-71371885D01*
X88915706Y-71371553D01*
X88909443Y-71368984D01*
X88864038Y-71345849D01*
X88840032Y-71333618D01*
X88652826Y-71272790D01*
X88652820Y-71272789D01*
X88458427Y-71242000D01*
X88458422Y-71242000D01*
X88458417Y-71242000D01*
X88261583Y-71242000D01*
X88261578Y-71242000D01*
X88261573Y-71242000D01*
X88067178Y-71272789D01*
X88067176Y-71272789D01*
X88067173Y-71272790D01*
X87879970Y-71333617D01*
X87805517Y-71371553D01*
X87704593Y-71422976D01*
X87613741Y-71488985D01*
X87557223Y-71530048D01*
X87549844Y-71534180D01*
X87401679Y-71682345D01*
X87397546Y-71689726D01*
X87397542Y-71689730D01*
X87397542Y-71689732D01*
X87393952Y-71694671D01*
X87393953Y-71694672D01*
X87304797Y-71817383D01*
X87280199Y-71842693D01*
X87271243Y-71849599D01*
X87254630Y-71856066D01*
X87249466Y-71860049D01*
X87242968Y-71860606D01*
X87206133Y-71874948D01*
X87137655Y-71861072D01*
X87087550Y-71812377D01*
X87087549Y-71812376D01*
X87086026Y-71809679D01*
X87070000Y-71748706D01*
X87070000Y-71694672D01*
X87069998Y-71694638D01*
X87063598Y-71635128D01*
X87063596Y-71635121D01*
X87027624Y-71538674D01*
X87013354Y-71500413D01*
X87013350Y-71500406D01*
X86948850Y-71414247D01*
X86927191Y-71385313D01*
X86927185Y-71385307D01*
X86863104Y-71337336D01*
X86812093Y-71299149D01*
X86812086Y-71299145D01*
X86715586Y-71263153D01*
X86677377Y-71248902D01*
X86677370Y-71248900D01*
X86617852Y-71242500D01*
X86617844Y-71242500D01*
X86070000Y-71242500D01*
X86070000Y-71880249D01*
X86050315Y-71947288D01*
X85997511Y-71993043D01*
X85928353Y-72002987D01*
X85913908Y-72000024D01*
X85885828Y-71992500D01*
X85885826Y-71992500D01*
X85754174Y-71992500D01*
X85754171Y-71992500D01*
X85726092Y-72000024D01*
X85656242Y-71998361D01*
X85598380Y-71959198D01*
X85570877Y-71894969D01*
X85570000Y-71880249D01*
X85570000Y-71242500D01*
X85022155Y-71242500D01*
X85022146Y-71242500D01*
X84962628Y-71248900D01*
X84962621Y-71248902D01*
X84827910Y-71299146D01*
X84827907Y-71299148D01*
X84712813Y-71385307D01*
X84712807Y-71385313D01*
X84626648Y-71500407D01*
X84626646Y-71500410D01*
X84576402Y-71635121D01*
X84576400Y-71635128D01*
X84570000Y-71694646D01*
X84570000Y-71694655D01*
X84570000Y-72242500D01*
X85207750Y-72242500D01*
X85274789Y-72262185D01*
X85320544Y-72314989D01*
X85330488Y-72384147D01*
X85327524Y-72398595D01*
X85320000Y-72426671D01*
X85320000Y-72558328D01*
X85327524Y-72586405D01*
X85325863Y-72656255D01*
X85286701Y-72714118D01*
X85222473Y-72741623D01*
X85207750Y-72742500D01*
X84570000Y-72742500D01*
X84570000Y-73290352D01*
X84576400Y-73349870D01*
X84576402Y-73349877D01*
X84626646Y-73484588D01*
X84626648Y-73484591D01*
X84712807Y-73599685D01*
X84712813Y-73599691D01*
X84730259Y-73612751D01*
X84827906Y-73685850D01*
X84827913Y-73685854D01*
X84962620Y-73736096D01*
X84962627Y-73736098D01*
X84969468Y-73736833D01*
X85022138Y-73742498D01*
X85022155Y-73742499D01*
X85022172Y-73742500D01*
X85570000Y-73742500D01*
X85570000Y-73104750D01*
X85589685Y-73037711D01*
X85642489Y-72991956D01*
X85711647Y-72982012D01*
X85726093Y-72984975D01*
X85754174Y-72992500D01*
X85885825Y-72992500D01*
X85885826Y-72992500D01*
X85913905Y-72984976D01*
X85983755Y-72986637D01*
X86041618Y-73025799D01*
X86069123Y-73090027D01*
X86070000Y-73104750D01*
X86070000Y-73742500D01*
X86617828Y-73742500D01*
X86617836Y-73742500D01*
X86617847Y-73742499D01*
X86653560Y-73738658D01*
X86677372Y-73736098D01*
X86677379Y-73736096D01*
X86812086Y-73685854D01*
X86812093Y-73685850D01*
X86927187Y-73599690D01*
X86927190Y-73599687D01*
X87013350Y-73484593D01*
X87013354Y-73484586D01*
X87063596Y-73349879D01*
X87063598Y-73349872D01*
X87065069Y-73336189D01*
X87069998Y-73290360D01*
X87070000Y-73290327D01*
X87070000Y-73243907D01*
X87074831Y-73227111D01*
X87074647Y-73210280D01*
X87075021Y-73208980D01*
X87078207Y-73198127D01*
X87087192Y-73184143D01*
X87088955Y-73178016D01*
X87094956Y-73168449D01*
X87100343Y-73163676D01*
X87115977Y-73139346D01*
X87140400Y-73128190D01*
X87147255Y-73122118D01*
X87157002Y-73120607D01*
X87179531Y-73110317D01*
X87202289Y-73113587D01*
X87216300Y-73111416D01*
X87230261Y-73117607D01*
X87248686Y-73120255D01*
X87251528Y-73121553D01*
X87266183Y-73133538D01*
X87280170Y-73139741D01*
X87287636Y-73151082D01*
X87300318Y-73161454D01*
X87393970Y-73290352D01*
X87406172Y-73307146D01*
X87545354Y-73446328D01*
X87704595Y-73562024D01*
X87776639Y-73598732D01*
X87873521Y-73648096D01*
X87875124Y-73649034D01*
X87878823Y-73650826D01*
X87880831Y-73651824D01*
X87884596Y-73652886D01*
X87939270Y-73670650D01*
X87974550Y-73682113D01*
X87974551Y-73682114D01*
X87986056Y-73685852D01*
X88067173Y-73712209D01*
X88261578Y-73743000D01*
X88261583Y-73743000D01*
X88458421Y-73743000D01*
X88458422Y-73743000D01*
X88652826Y-73712209D01*
X88840025Y-73651384D01*
X88902177Y-73619715D01*
X88935573Y-73608336D01*
X88949219Y-73605774D01*
X89018739Y-73612751D01*
X89073440Y-73656189D01*
X89073450Y-73656203D01*
X89073452Y-73656205D01*
X89073452Y-73656206D01*
X89075360Y-73658912D01*
X89096360Y-73710155D01*
X89096683Y-73712110D01*
X89098342Y-73732347D01*
X89098252Y-74193876D01*
X89093222Y-74228811D01*
X89089382Y-74241879D01*
X89051596Y-74300649D01*
X88988034Y-74329661D01*
X88926033Y-74322706D01*
X88918326Y-74319752D01*
X88893814Y-74307068D01*
X88802866Y-74246298D01*
X88802853Y-74246291D01*
X88648083Y-74182184D01*
X88648056Y-74182178D01*
X88483773Y-74149500D01*
X88483771Y-74149500D01*
X88483767Y-74149500D01*
X88316233Y-74149500D01*
X88316228Y-74149500D01*
X88316226Y-74149500D01*
X88151942Y-74182178D01*
X88151915Y-74182184D01*
X87997142Y-74246292D01*
X87857834Y-74339374D01*
X87739374Y-74457834D01*
X87646292Y-74597142D01*
X87582184Y-74751915D01*
X87582178Y-74751942D01*
X87549500Y-74916225D01*
X87549500Y-74916228D01*
X87549500Y-75083771D01*
X87549500Y-75083773D01*
X87549499Y-75083773D01*
X87582178Y-75248056D01*
X87582184Y-75248083D01*
X87646292Y-75402856D01*
X87739374Y-75542164D01*
X87857833Y-75660623D01*
X87857838Y-75660627D01*
X87880880Y-75676023D01*
X87943428Y-75717816D01*
X87943430Y-75717818D01*
X87985351Y-75745828D01*
X87997137Y-75753703D01*
X88151918Y-75817816D01*
X88316228Y-75850499D01*
X88316232Y-75850500D01*
X88316233Y-75850500D01*
X88483768Y-75850500D01*
X88483769Y-75850499D01*
X88648082Y-75817816D01*
X88802863Y-75753703D01*
X88890238Y-75695319D01*
X88922071Y-75680092D01*
X88935068Y-75676023D01*
X89004926Y-75674781D01*
X89064367Y-75711504D01*
X89093042Y-75766937D01*
X89094870Y-75774998D01*
X89097940Y-75802445D01*
X89097864Y-76193617D01*
X89092834Y-76228552D01*
X89088994Y-76241620D01*
X89081417Y-76253403D01*
X89078316Y-76267067D01*
X89062895Y-76282211D01*
X89051208Y-76300390D01*
X89038463Y-76306206D01*
X89028467Y-76316025D01*
X89007305Y-76320428D01*
X88987646Y-76329402D01*
X88972402Y-76327692D01*
X88960063Y-76330260D01*
X88925645Y-76322447D01*
X88917938Y-76319493D01*
X88893426Y-76306809D01*
X88802866Y-76246298D01*
X88802853Y-76246291D01*
X88648083Y-76182184D01*
X88648056Y-76182178D01*
X88483773Y-76149500D01*
X88483771Y-76149500D01*
X88483767Y-76149500D01*
X88316233Y-76149500D01*
X88316228Y-76149500D01*
X88316226Y-76149500D01*
X88151942Y-76182178D01*
X88151915Y-76182184D01*
X87997142Y-76246292D01*
X87857834Y-76339374D01*
X87739374Y-76457834D01*
X87646292Y-76597142D01*
X87582184Y-76751915D01*
X87582178Y-76751942D01*
X87549500Y-76916225D01*
X87549500Y-76916228D01*
X87549500Y-77083771D01*
X87549500Y-77083773D01*
X87549499Y-77083773D01*
X87582178Y-77248056D01*
X87582184Y-77248083D01*
X87646292Y-77402856D01*
X87739374Y-77542164D01*
X87857834Y-77660624D01*
X87891753Y-77683288D01*
X87997130Y-77753699D01*
X87997134Y-77753701D01*
X87997137Y-77753703D01*
X88151918Y-77817816D01*
X88316228Y-77850499D01*
X88316232Y-77850500D01*
X88316233Y-77850500D01*
X88483768Y-77850500D01*
X88483769Y-77850499D01*
X88648082Y-77817816D01*
X88802863Y-77753703D01*
X88889847Y-77695580D01*
X88921674Y-77680354D01*
X88934676Y-77676282D01*
X89004533Y-77675038D01*
X89063975Y-77711759D01*
X89092654Y-77767196D01*
X89094482Y-77775257D01*
X89097552Y-77802704D01*
X89097191Y-79661564D01*
X89092162Y-79696495D01*
X89088654Y-79708437D01*
X89087756Y-79711492D01*
X89078106Y-79726500D01*
X89073073Y-79743617D01*
X89049982Y-79770243D01*
X89049970Y-79770263D01*
X89049950Y-79770281D01*
X89048579Y-79771468D01*
X88993758Y-79798891D01*
X88986201Y-79800534D01*
X88959833Y-79803365D01*
X87641938Y-79803112D01*
X87607002Y-79798082D01*
X87598365Y-79795544D01*
X87586116Y-79787668D01*
X87571948Y-79784318D01*
X87557320Y-79769153D01*
X87539595Y-79757757D01*
X87533548Y-79744510D01*
X87523440Y-79734031D01*
X87519332Y-79713365D01*
X87510583Y-79694196D01*
X87512658Y-79679783D01*
X87509820Y-79665502D01*
X87517537Y-79645895D01*
X87520541Y-79625039D01*
X87530543Y-79612855D01*
X87535412Y-79600488D01*
X87560808Y-79575989D01*
X87564970Y-79572989D01*
X87590029Y-79559018D01*
X87602863Y-79553703D01*
X87742162Y-79460626D01*
X87860626Y-79342162D01*
X87953703Y-79202863D01*
X88017816Y-79048082D01*
X88050500Y-78883767D01*
X88050500Y-78716233D01*
X88017816Y-78551918D01*
X87953703Y-78397137D01*
X87922537Y-78350494D01*
X87860626Y-78257837D01*
X87860623Y-78257833D01*
X87742164Y-78139374D01*
X87602856Y-78046292D01*
X87448083Y-77982184D01*
X87448056Y-77982178D01*
X87283773Y-77949500D01*
X87283771Y-77949500D01*
X87283767Y-77949500D01*
X87116233Y-77949500D01*
X87116228Y-77949500D01*
X87116226Y-77949500D01*
X86951942Y-77982178D01*
X86951915Y-77982184D01*
X86797142Y-78046292D01*
X86657834Y-78139374D01*
X86539374Y-78257834D01*
X86446292Y-78397142D01*
X86382184Y-78551915D01*
X86382178Y-78551942D01*
X86349500Y-78716225D01*
X86349500Y-78716228D01*
X86349500Y-78883771D01*
X86349500Y-78883773D01*
X86349499Y-78883773D01*
X86382178Y-79048056D01*
X86382184Y-79048083D01*
X86446292Y-79202856D01*
X86539374Y-79342164D01*
X86657831Y-79460621D01*
X86657838Y-79460627D01*
X86748393Y-79521133D01*
X86748399Y-79521136D01*
X86750914Y-79522817D01*
X86797137Y-79553703D01*
X86814945Y-79561079D01*
X86822819Y-79565805D01*
X86825801Y-79569041D01*
X86836810Y-79575573D01*
X86843816Y-79581218D01*
X86864553Y-79611089D01*
X86870169Y-79617183D01*
X86870636Y-79619852D01*
X86883660Y-79638612D01*
X86886149Y-79708437D01*
X86850494Y-79768524D01*
X86794516Y-79798441D01*
X86789526Y-79799620D01*
X86760989Y-79802943D01*
X50735413Y-79796032D01*
X50700479Y-79791002D01*
X50685481Y-79786595D01*
X50626710Y-79748809D01*
X50626707Y-79748805D01*
X50625517Y-79747431D01*
X50598078Y-79692588D01*
X50596437Y-79685038D01*
X50593608Y-79658701D01*
X50593608Y-74983773D01*
X73049499Y-74983773D01*
X73082178Y-75148056D01*
X73082184Y-75148083D01*
X73146292Y-75302856D01*
X73239374Y-75442164D01*
X73357833Y-75560623D01*
X73357837Y-75560626D01*
X73450492Y-75622536D01*
X73450494Y-75622538D01*
X73497134Y-75653701D01*
X73497137Y-75653703D01*
X73651918Y-75717816D01*
X73816228Y-75750499D01*
X73816232Y-75750500D01*
X73816233Y-75750500D01*
X73983768Y-75750500D01*
X73983769Y-75750499D01*
X74148082Y-75717816D01*
X74302863Y-75653703D01*
X74442162Y-75560626D01*
X74560626Y-75442162D01*
X74653703Y-75302863D01*
X74717816Y-75148082D01*
X74750500Y-74983767D01*
X74750500Y-74816233D01*
X74717816Y-74651918D01*
X74653703Y-74497137D01*
X74653701Y-74497134D01*
X74622538Y-74450495D01*
X74622537Y-74450494D01*
X74560626Y-74357837D01*
X74560623Y-74357833D01*
X74442164Y-74239374D01*
X74302856Y-74146292D01*
X74148083Y-74082184D01*
X74148056Y-74082178D01*
X73983773Y-74049500D01*
X73983771Y-74049500D01*
X73983767Y-74049500D01*
X73816233Y-74049500D01*
X73816228Y-74049500D01*
X73816226Y-74049500D01*
X73651942Y-74082178D01*
X73651915Y-74082184D01*
X73497142Y-74146292D01*
X73357834Y-74239374D01*
X73239374Y-74357834D01*
X73146292Y-74497142D01*
X73082184Y-74651915D01*
X73082178Y-74651942D01*
X73049500Y-74816225D01*
X73049500Y-74816228D01*
X73049500Y-74983771D01*
X73049500Y-74983773D01*
X73049499Y-74983773D01*
X50593608Y-74983773D01*
X50593608Y-72983773D01*
X75149499Y-72983773D01*
X75182178Y-73148056D01*
X75182184Y-73148083D01*
X75246292Y-73302856D01*
X75339374Y-73442164D01*
X75457833Y-73560623D01*
X75457838Y-73560627D01*
X75459929Y-73562024D01*
X75550492Y-73622536D01*
X75550494Y-73622538D01*
X75590149Y-73649034D01*
X75597137Y-73653703D01*
X75751918Y-73717816D01*
X75876009Y-73742499D01*
X75913257Y-73749908D01*
X75915492Y-73750409D01*
X75916230Y-73750500D01*
X76083768Y-73750500D01*
X76087889Y-73750500D01*
X76095742Y-73748117D01*
X76248082Y-73717816D01*
X76402863Y-73653703D01*
X76542162Y-73560626D01*
X76660626Y-73442162D01*
X76753703Y-73302863D01*
X76817816Y-73148082D01*
X76850500Y-72983767D01*
X76850500Y-72816233D01*
X76847173Y-72799507D01*
X76830430Y-72715329D01*
X76817817Y-72651923D01*
X76817816Y-72651922D01*
X76817816Y-72651918D01*
X76811291Y-72636166D01*
X76811291Y-72636164D01*
X76753704Y-72497139D01*
X76706621Y-72426674D01*
X76660624Y-72357834D01*
X76542164Y-72239374D01*
X76402856Y-72146292D01*
X76248083Y-72082184D01*
X76248056Y-72082178D01*
X76083773Y-72049500D01*
X76083771Y-72049500D01*
X76083767Y-72049500D01*
X75916233Y-72049500D01*
X75916228Y-72049500D01*
X75916226Y-72049500D01*
X75751942Y-72082178D01*
X75751915Y-72082184D01*
X75597142Y-72146292D01*
X75457834Y-72239374D01*
X75339374Y-72357834D01*
X75246292Y-72497142D01*
X75182184Y-72651915D01*
X75182178Y-72651942D01*
X75149500Y-72816225D01*
X75149500Y-72816228D01*
X75149500Y-72983771D01*
X75149500Y-72983773D01*
X75149499Y-72983773D01*
X50593608Y-72983773D01*
X50593608Y-64172376D01*
X60386631Y-64172376D01*
X60419310Y-64336659D01*
X60419316Y-64336686D01*
X60483424Y-64491459D01*
X60576506Y-64630767D01*
X60694965Y-64749226D01*
X60694970Y-64749230D01*
X60701666Y-64753704D01*
X60787624Y-64811139D01*
X60787626Y-64811141D01*
X60834100Y-64842193D01*
X60834269Y-64842306D01*
X60989050Y-64906419D01*
X61124116Y-64933285D01*
X61150389Y-64938511D01*
X61152624Y-64939012D01*
X61153362Y-64939103D01*
X61320900Y-64939103D01*
X61325021Y-64939103D01*
X61332874Y-64936720D01*
X61485214Y-64906419D01*
X61639995Y-64842306D01*
X61666441Y-64824634D01*
X61668524Y-64823982D01*
X61669981Y-64822355D01*
X61698278Y-64809403D01*
X61706869Y-64806712D01*
X61724686Y-64806395D01*
X61733117Y-64803756D01*
X61748613Y-64805970D01*
X61776726Y-64805470D01*
X61836167Y-64842193D01*
X61866318Y-64905222D01*
X61860094Y-64968385D01*
X61858304Y-64973184D01*
X61854474Y-64980668D01*
X61854074Y-64983169D01*
X61852022Y-64985460D01*
X61848876Y-64991610D01*
X61849167Y-64991766D01*
X61846297Y-64997134D01*
X61782184Y-65151917D01*
X61782178Y-65151942D01*
X61749500Y-65316225D01*
X61749500Y-65316228D01*
X61749500Y-65483771D01*
X61749500Y-65483773D01*
X61749499Y-65483773D01*
X61782178Y-65648056D01*
X61782184Y-65648083D01*
X61846292Y-65802856D01*
X61939374Y-65942164D01*
X62057833Y-66060623D01*
X62057837Y-66060626D01*
X62150492Y-66122536D01*
X62150494Y-66122538D01*
X62188726Y-66148083D01*
X62197137Y-66153703D01*
X62351918Y-66217816D01*
X62516228Y-66250499D01*
X62516232Y-66250500D01*
X62516233Y-66250500D01*
X62683768Y-66250500D01*
X62683769Y-66250499D01*
X62848082Y-66217816D01*
X63002863Y-66153703D01*
X63142162Y-66060626D01*
X63219015Y-65983773D01*
X79849499Y-65983773D01*
X79882178Y-66148056D01*
X79882184Y-66148083D01*
X79946292Y-66302856D01*
X80039374Y-66442164D01*
X80157833Y-66560623D01*
X80157837Y-66560626D01*
X80250492Y-66622536D01*
X80250494Y-66622538D01*
X80297134Y-66653701D01*
X80297137Y-66653703D01*
X80451918Y-66717816D01*
X80616228Y-66750499D01*
X80616232Y-66750500D01*
X80616233Y-66750500D01*
X80783768Y-66750500D01*
X80783769Y-66750499D01*
X80948082Y-66717816D01*
X81102863Y-66653703D01*
X81242162Y-66560626D01*
X81360626Y-66442162D01*
X81453703Y-66302863D01*
X81517816Y-66148082D01*
X81550500Y-65983767D01*
X81550500Y-65816233D01*
X81517816Y-65651918D01*
X81453703Y-65497137D01*
X81453701Y-65497134D01*
X81422538Y-65450495D01*
X81422537Y-65450494D01*
X81360626Y-65357837D01*
X81360623Y-65357833D01*
X81242164Y-65239374D01*
X81102856Y-65146292D01*
X80948083Y-65082184D01*
X80948056Y-65082178D01*
X80783773Y-65049500D01*
X80783771Y-65049500D01*
X80783767Y-65049500D01*
X80616233Y-65049500D01*
X80616228Y-65049500D01*
X80616226Y-65049500D01*
X80451942Y-65082178D01*
X80451915Y-65082184D01*
X80297142Y-65146292D01*
X80157834Y-65239374D01*
X80039374Y-65357834D01*
X79946292Y-65497142D01*
X79882184Y-65651915D01*
X79882178Y-65651942D01*
X79849500Y-65816225D01*
X79849500Y-65816228D01*
X79849500Y-65983771D01*
X79849500Y-65983773D01*
X79849499Y-65983773D01*
X63219015Y-65983773D01*
X63260626Y-65942162D01*
X63353703Y-65802863D01*
X63417816Y-65648082D01*
X63450500Y-65483767D01*
X63450500Y-65316233D01*
X63417816Y-65151918D01*
X63353703Y-64997137D01*
X63293087Y-64906419D01*
X63260626Y-64857837D01*
X63260624Y-64857834D01*
X63142164Y-64739374D01*
X63002856Y-64646292D01*
X62848083Y-64582184D01*
X62848056Y-64582178D01*
X62683773Y-64549500D01*
X62683771Y-64549500D01*
X62683767Y-64549500D01*
X62516233Y-64549500D01*
X62516228Y-64549500D01*
X62516226Y-64549500D01*
X62351942Y-64582178D01*
X62351917Y-64582184D01*
X62197141Y-64646294D01*
X62170691Y-64663967D01*
X62168638Y-64664609D01*
X62167205Y-64666213D01*
X62138858Y-64679197D01*
X62130274Y-64681885D01*
X62112444Y-64682203D01*
X62104014Y-64684843D01*
X62088507Y-64682631D01*
X62060416Y-64683133D01*
X62000972Y-64646415D01*
X61970816Y-64583388D01*
X61977030Y-64520237D01*
X61978824Y-64515427D01*
X61982631Y-64507989D01*
X61983032Y-64505485D01*
X61985094Y-64503178D01*
X61988261Y-64496991D01*
X61987966Y-64496834D01*
X61990832Y-64491469D01*
X61990835Y-64491466D01*
X62054948Y-64336685D01*
X62087632Y-64172370D01*
X62087632Y-64083773D01*
X78049499Y-64083773D01*
X78082178Y-64248056D01*
X78082184Y-64248083D01*
X78146292Y-64402856D01*
X78239374Y-64542164D01*
X78357831Y-64660621D01*
X78357834Y-64660623D01*
X78357837Y-64660626D01*
X78377660Y-64673871D01*
X78377661Y-64673872D01*
X78497130Y-64753699D01*
X78497134Y-64753701D01*
X78497137Y-64753703D01*
X78651918Y-64817816D01*
X78775039Y-64842306D01*
X78813257Y-64849908D01*
X78815492Y-64850409D01*
X78816230Y-64850500D01*
X78983768Y-64850500D01*
X78987889Y-64850500D01*
X78995742Y-64848117D01*
X79148082Y-64817816D01*
X79302863Y-64753703D01*
X79442162Y-64660626D01*
X79560626Y-64542162D01*
X79653703Y-64402863D01*
X79717816Y-64248082D01*
X79750500Y-64083767D01*
X79750500Y-63916233D01*
X79717816Y-63751918D01*
X79653703Y-63597137D01*
X79619828Y-63546440D01*
X79619828Y-63546439D01*
X79560627Y-63457838D01*
X79560621Y-63457831D01*
X79442164Y-63339374D01*
X79302856Y-63246292D01*
X79148083Y-63182184D01*
X79148056Y-63182178D01*
X78983773Y-63149500D01*
X78983771Y-63149500D01*
X78983767Y-63149500D01*
X78816233Y-63149500D01*
X78816228Y-63149500D01*
X78816226Y-63149500D01*
X78651942Y-63182178D01*
X78651915Y-63182184D01*
X78497142Y-63246292D01*
X78357834Y-63339374D01*
X78239374Y-63457834D01*
X78146292Y-63597142D01*
X78082184Y-63751915D01*
X78082178Y-63751942D01*
X78049500Y-63916225D01*
X78049500Y-63916228D01*
X78049500Y-64083771D01*
X78049500Y-64083773D01*
X78049499Y-64083773D01*
X62087632Y-64083773D01*
X62087632Y-64004836D01*
X62073608Y-63934331D01*
X62073608Y-63934328D01*
X62070009Y-63916233D01*
X62054709Y-63839317D01*
X62052624Y-63834909D01*
X61990837Y-63685745D01*
X61990835Y-63685740D01*
X61959669Y-63639097D01*
X61897758Y-63546440D01*
X61897757Y-63546439D01*
X61897755Y-63546436D01*
X61779296Y-63427977D01*
X61639988Y-63334895D01*
X61485215Y-63270787D01*
X61485188Y-63270781D01*
X61320905Y-63238103D01*
X61320903Y-63238103D01*
X61320899Y-63238103D01*
X61153365Y-63238103D01*
X61153360Y-63238103D01*
X61153358Y-63238103D01*
X60989074Y-63270781D01*
X60989047Y-63270787D01*
X60834274Y-63334895D01*
X60694966Y-63427977D01*
X60576506Y-63546437D01*
X60483424Y-63685745D01*
X60419316Y-63840518D01*
X60419310Y-63840545D01*
X60386632Y-64004828D01*
X60386632Y-64004831D01*
X60386632Y-64172374D01*
X60386632Y-64172376D01*
X60386631Y-64172376D01*
X50593608Y-64172376D01*
X50593608Y-58483773D01*
X58349499Y-58483773D01*
X58382178Y-58648056D01*
X58382184Y-58648083D01*
X58446292Y-58802856D01*
X58539374Y-58942164D01*
X58657834Y-59060624D01*
X58657837Y-59060626D01*
X58741052Y-59116228D01*
X58797137Y-59153703D01*
X58951918Y-59217816D01*
X59104037Y-59248074D01*
X59113275Y-59249911D01*
X59113276Y-59249912D01*
X59115492Y-59250409D01*
X59116230Y-59250500D01*
X59283768Y-59250500D01*
X59287889Y-59250500D01*
X59295742Y-59248117D01*
X59448082Y-59217816D01*
X59602863Y-59153703D01*
X59742162Y-59060626D01*
X59754714Y-59048074D01*
X59849715Y-58953074D01*
X59877963Y-58931927D01*
X59891689Y-58924432D01*
X59909113Y-58920641D01*
X59911037Y-58919591D01*
X59913222Y-58919747D01*
X59959946Y-58909581D01*
X59961756Y-58909710D01*
X60019953Y-58929076D01*
X60026471Y-58933265D01*
X60047101Y-58949890D01*
X60157837Y-59060626D01*
X60241052Y-59116228D01*
X60297137Y-59153703D01*
X60451918Y-59217816D01*
X60604037Y-59248074D01*
X60613275Y-59249911D01*
X60613276Y-59249912D01*
X60615492Y-59250409D01*
X60616230Y-59250500D01*
X60783768Y-59250500D01*
X60787889Y-59250500D01*
X60795742Y-59248117D01*
X60948082Y-59217816D01*
X61102863Y-59153703D01*
X61242162Y-59060626D01*
X61360626Y-58942162D01*
X61453703Y-58802863D01*
X61517816Y-58648082D01*
X61550500Y-58483767D01*
X61550500Y-58316233D01*
X61517816Y-58151918D01*
X61453703Y-57997137D01*
X61453701Y-57997134D01*
X61453699Y-57997130D01*
X61400569Y-57917616D01*
X61400568Y-57917615D01*
X61360624Y-57857834D01*
X61242164Y-57739374D01*
X61102856Y-57646292D01*
X60948083Y-57582184D01*
X60948056Y-57582178D01*
X60783766Y-57549498D01*
X60781416Y-57549267D01*
X60758635Y-57544841D01*
X60742392Y-57540071D01*
X60741983Y-57539808D01*
X60683644Y-57502327D01*
X60682457Y-57500958D01*
X60654977Y-57446083D01*
X60653332Y-57438521D01*
X60651743Y-57423738D01*
X60651429Y-57423777D01*
X60650409Y-57415492D01*
X60649908Y-57413257D01*
X60640646Y-57366693D01*
X60617816Y-57251918D01*
X60553703Y-57097137D01*
X60522537Y-57050494D01*
X60460626Y-56957837D01*
X60342163Y-56839374D01*
X60342159Y-56839371D01*
X60342155Y-56839367D01*
X60338891Y-56836688D01*
X60330591Y-56829225D01*
X60322839Y-56821597D01*
X60321618Y-56819404D01*
X60318726Y-56815943D01*
X60319385Y-56815391D01*
X60318822Y-56814379D01*
X60308701Y-56802800D01*
X60307772Y-56803458D01*
X60306617Y-56801826D01*
X60305820Y-56799504D01*
X60303136Y-56796432D01*
X60302314Y-56795045D01*
X60303958Y-56794070D01*
X60299729Y-56781737D01*
X60294547Y-56775303D01*
X60293943Y-56769680D01*
X60288860Y-56760546D01*
X60289422Y-56751674D01*
X60283957Y-56735733D01*
X60288373Y-56717757D01*
X60287094Y-56705832D01*
X60293089Y-56693860D01*
X60293283Y-56690817D01*
X60295848Y-56687331D01*
X60298658Y-56675895D01*
X60296924Y-56675068D01*
X60297206Y-56674477D01*
X60299686Y-56671710D01*
X60300627Y-56667881D01*
X60300664Y-56667817D01*
X60301668Y-56666092D01*
X60303675Y-56667260D01*
X60309880Y-56660336D01*
X60318384Y-56643360D01*
X60342537Y-56623904D01*
X60343842Y-56622450D01*
X60345870Y-56621221D01*
X60347273Y-56620389D01*
X60363068Y-56612484D01*
X60371297Y-56609076D01*
X60371299Y-56609075D01*
X60452355Y-56575501D01*
X60452368Y-56575494D01*
X60624335Y-56460589D01*
X60624339Y-56460586D01*
X60770586Y-56314339D01*
X60770589Y-56314335D01*
X60885494Y-56142368D01*
X60885499Y-56142358D01*
X60964649Y-55951274D01*
X60979522Y-55876500D01*
X63280000Y-55876500D01*
X63280000Y-55876504D01*
X63280000Y-56275000D01*
X63856000Y-56275000D01*
X63923039Y-56294685D01*
X63968794Y-56347489D01*
X63980000Y-56399000D01*
X63980000Y-56651000D01*
X63960315Y-56718039D01*
X63907511Y-56763794D01*
X63856000Y-56775000D01*
X63280000Y-56775000D01*
X63280000Y-57173498D01*
X63318421Y-57366655D01*
X63318430Y-57366693D01*
X63393803Y-57548664D01*
X63393808Y-57548673D01*
X63393818Y-57548690D01*
X63503249Y-57712464D01*
X63503250Y-57712465D01*
X63503255Y-57712471D01*
X63642527Y-57851743D01*
X63642533Y-57851748D01*
X63642534Y-57851749D01*
X63642537Y-57851751D01*
X63746290Y-57921077D01*
X63746291Y-57921078D01*
X63746293Y-57921079D01*
X63772545Y-57944661D01*
X63774978Y-57947572D01*
X63781447Y-57955313D01*
X63809330Y-58019378D01*
X63798156Y-58088337D01*
X63795767Y-58093331D01*
X63760761Y-58136029D01*
X63761161Y-58136490D01*
X63758472Y-58138821D01*
X63758315Y-58139014D01*
X63757841Y-58139369D01*
X63757828Y-58139380D01*
X63639374Y-58257834D01*
X63546292Y-58397142D01*
X63482184Y-58551915D01*
X63482178Y-58551942D01*
X63449500Y-58716225D01*
X63449500Y-58716228D01*
X63449500Y-58883771D01*
X63449500Y-58883773D01*
X63449499Y-58883773D01*
X63482178Y-59048056D01*
X63482182Y-59048074D01*
X63482184Y-59048082D01*
X63496966Y-59083768D01*
X63546297Y-59202864D01*
X63546299Y-59202867D01*
X63546298Y-59202867D01*
X63556287Y-59217816D01*
X63585408Y-59261397D01*
X63600639Y-59293233D01*
X63606908Y-59313256D01*
X63610401Y-59373406D01*
X63609149Y-59380009D01*
X63601881Y-59404361D01*
X63582189Y-59451901D01*
X63582180Y-59451927D01*
X63575858Y-59483714D01*
X63549500Y-59616228D01*
X63549500Y-59783771D01*
X63549500Y-59783773D01*
X63549499Y-59783773D01*
X63582178Y-59948056D01*
X63582184Y-59948083D01*
X63646292Y-60102856D01*
X63739374Y-60242164D01*
X63857833Y-60360623D01*
X63857837Y-60360626D01*
X63950492Y-60422536D01*
X63950494Y-60422538D01*
X63997134Y-60453701D01*
X63997137Y-60453703D01*
X64151918Y-60517816D01*
X64316228Y-60550499D01*
X64316232Y-60550500D01*
X64316233Y-60550500D01*
X64483768Y-60550500D01*
X64483769Y-60550499D01*
X64648082Y-60517816D01*
X64802863Y-60453703D01*
X64942162Y-60360626D01*
X65060626Y-60242162D01*
X65153703Y-60102863D01*
X65217816Y-59948082D01*
X65219788Y-59938165D01*
X65231525Y-59904895D01*
X65238772Y-59891040D01*
X65287282Y-59840764D01*
X65299115Y-59834026D01*
X65336282Y-59820162D01*
X65348082Y-59817816D01*
X65502863Y-59753703D01*
X65642162Y-59660626D01*
X65760626Y-59542162D01*
X65853703Y-59402863D01*
X65917816Y-59248082D01*
X65950500Y-59083767D01*
X65950500Y-58916233D01*
X65917816Y-58751918D01*
X65853703Y-58597137D01*
X65815106Y-58539373D01*
X65815106Y-58539372D01*
X65760627Y-58457838D01*
X65760621Y-58457831D01*
X65642164Y-58339374D01*
X65502856Y-58246292D01*
X65348083Y-58182184D01*
X65348056Y-58182178D01*
X65183773Y-58149500D01*
X65183771Y-58149500D01*
X65183767Y-58149500D01*
X65016233Y-58149500D01*
X65016228Y-58149500D01*
X64961059Y-58160474D01*
X64928052Y-58162543D01*
X64926904Y-58162461D01*
X64912355Y-58161159D01*
X64906129Y-58160980D01*
X64903486Y-58160792D01*
X64877142Y-58150973D01*
X64843412Y-58140209D01*
X64833184Y-58133375D01*
X64806077Y-58108761D01*
X64797683Y-58098493D01*
X64770491Y-58034136D01*
X64781828Y-57966491D01*
X64784108Y-57961727D01*
X64827071Y-57912148D01*
X64917465Y-57851749D01*
X65056748Y-57712466D01*
X65056751Y-57712462D01*
X65166185Y-57548684D01*
X65166192Y-57548671D01*
X65167779Y-57544841D01*
X65241569Y-57366693D01*
X65241577Y-57366656D01*
X65278479Y-57181135D01*
X65279203Y-57178401D01*
X65280000Y-57173493D01*
X65280000Y-56775000D01*
X64704000Y-56775000D01*
X64636961Y-56755315D01*
X64591206Y-56702511D01*
X64580000Y-56651000D01*
X64580000Y-56399000D01*
X64599685Y-56331961D01*
X64652489Y-56286206D01*
X64704000Y-56275000D01*
X65170104Y-56275000D01*
X65205036Y-56280021D01*
X65227232Y-56286539D01*
X65276247Y-56314256D01*
X65276342Y-56314344D01*
X65279058Y-56316842D01*
X65288335Y-56326342D01*
X65289493Y-56327662D01*
X65289494Y-56327664D01*
X65289495Y-56327665D01*
X65387335Y-56425505D01*
X65507164Y-56494688D01*
X65640817Y-56530500D01*
X65640819Y-56530500D01*
X65779181Y-56530500D01*
X65779183Y-56530500D01*
X65912836Y-56494688D01*
X66032665Y-56425505D01*
X66130505Y-56327665D01*
X66199688Y-56207836D01*
X66235500Y-56074183D01*
X66235500Y-55935817D01*
X70964500Y-55935817D01*
X70964500Y-56074183D01*
X70982768Y-56142358D01*
X70985515Y-56152612D01*
X70985516Y-56152617D01*
X71000311Y-56207833D01*
X71000317Y-56207846D01*
X71069488Y-56327655D01*
X71069491Y-56327660D01*
X71069492Y-56327661D01*
X71069494Y-56327664D01*
X71069495Y-56327665D01*
X71167335Y-56425505D01*
X71287164Y-56494688D01*
X71420817Y-56530500D01*
X71420819Y-56530500D01*
X71559181Y-56530500D01*
X71559183Y-56530500D01*
X71692836Y-56494688D01*
X71812665Y-56425505D01*
X71910485Y-56327684D01*
X71925032Y-56315232D01*
X71926261Y-56314335D01*
X71946771Y-56299359D01*
X71998618Y-56277343D01*
X72001532Y-56276835D01*
X72011921Y-56275938D01*
X72012521Y-56275723D01*
X72013038Y-56275842D01*
X72022788Y-56275000D01*
X72496000Y-56275000D01*
X72563039Y-56294685D01*
X72608794Y-56347489D01*
X72620000Y-56399000D01*
X72620000Y-56651000D01*
X72600315Y-56718039D01*
X72547511Y-56763794D01*
X72496000Y-56775000D01*
X71920000Y-56775000D01*
X71920000Y-57173498D01*
X71958421Y-57366655D01*
X71958430Y-57366693D01*
X72033803Y-57548664D01*
X72033808Y-57548673D01*
X72033818Y-57548690D01*
X72143249Y-57712464D01*
X72143250Y-57712465D01*
X72143255Y-57712471D01*
X72282527Y-57851743D01*
X72282533Y-57851748D01*
X72282534Y-57851749D01*
X72282537Y-57851751D01*
X72446315Y-57961185D01*
X72446328Y-57961192D01*
X72479653Y-57974995D01*
X72493593Y-57981822D01*
X72496909Y-57983712D01*
X72500823Y-57987771D01*
X72509648Y-57993429D01*
X72509995Y-57992999D01*
X72511164Y-57993941D01*
X72510919Y-57994244D01*
X72517682Y-57998580D01*
X72525207Y-58005239D01*
X72539298Y-58027676D01*
X72545405Y-58034010D01*
X72546388Y-58038966D01*
X72562367Y-58064408D01*
X72563178Y-58128776D01*
X72562553Y-58131224D01*
X72526896Y-58191310D01*
X72511301Y-58203649D01*
X72457840Y-58239372D01*
X72457838Y-58239374D01*
X72393335Y-58303876D01*
X72389832Y-58306356D01*
X72388582Y-58308384D01*
X72369477Y-58320770D01*
X72359250Y-58328013D01*
X72357631Y-58328788D01*
X72348504Y-58332842D01*
X72343688Y-58335471D01*
X72340727Y-58336891D01*
X72330110Y-58338618D01*
X72294344Y-58348861D01*
X72286980Y-58349290D01*
X72279768Y-58349500D01*
X72116226Y-58349500D01*
X71951942Y-58382178D01*
X71951915Y-58382184D01*
X71797142Y-58446292D01*
X71657837Y-58539373D01*
X71657833Y-58539375D01*
X71539374Y-58657834D01*
X71446292Y-58797142D01*
X71382184Y-58951915D01*
X71382178Y-58951942D01*
X71349500Y-59116225D01*
X71349500Y-59116228D01*
X71349500Y-59283771D01*
X71349500Y-59283773D01*
X71349499Y-59283773D01*
X71382178Y-59448056D01*
X71382184Y-59448083D01*
X71446292Y-59602856D01*
X71539374Y-59742164D01*
X71657834Y-59860624D01*
X71657837Y-59860626D01*
X71747734Y-59920693D01*
X71797137Y-59953703D01*
X71951918Y-60017816D01*
X71979156Y-60023233D01*
X72030580Y-60033463D01*
X72030607Y-60033467D01*
X72030634Y-60033473D01*
X72065948Y-60040497D01*
X72099219Y-60052235D01*
X72113074Y-60059482D01*
X72125908Y-60071865D01*
X72127856Y-60072884D01*
X72128942Y-60074792D01*
X72163353Y-60107993D01*
X72163357Y-60108000D01*
X72170764Y-60121008D01*
X72181095Y-60145134D01*
X72181130Y-60145122D01*
X72181323Y-60145665D01*
X72181773Y-60146715D01*
X72182179Y-60148069D01*
X72182183Y-60148079D01*
X72182184Y-60148082D01*
X72246295Y-60302860D01*
X72308347Y-60395728D01*
X72339374Y-60442164D01*
X72457833Y-60560623D01*
X72457837Y-60560626D01*
X72550492Y-60622536D01*
X72550494Y-60622538D01*
X72597134Y-60653701D01*
X72597137Y-60653703D01*
X72751918Y-60717816D01*
X72916228Y-60750499D01*
X72916232Y-60750500D01*
X72916233Y-60750500D01*
X73083768Y-60750500D01*
X73083769Y-60750499D01*
X73248082Y-60717816D01*
X73402863Y-60653703D01*
X73542162Y-60560626D01*
X73660626Y-60442162D01*
X73753703Y-60302863D01*
X73817816Y-60148082D01*
X73850500Y-59983767D01*
X73850500Y-59816233D01*
X73817816Y-59651918D01*
X73753703Y-59497137D01*
X73744734Y-59483714D01*
X73729502Y-59451879D01*
X73724831Y-59436963D01*
X73723581Y-59367109D01*
X73727187Y-59353964D01*
X73743663Y-59317887D01*
X73753703Y-59302863D01*
X73817816Y-59148082D01*
X73850500Y-58983767D01*
X73850500Y-58816233D01*
X73817816Y-58651918D01*
X73753703Y-58497137D01*
X73719731Y-58446295D01*
X73719731Y-58446294D01*
X73660627Y-58357838D01*
X73660621Y-58357831D01*
X73542167Y-58239377D01*
X73542162Y-58239374D01*
X73542159Y-58239372D01*
X73428878Y-58163680D01*
X73425955Y-58161055D01*
X73402626Y-58140100D01*
X73393721Y-58129444D01*
X73365837Y-58065385D01*
X73372106Y-58026694D01*
X73377011Y-57996419D01*
X73379274Y-57991689D01*
X73422240Y-57942104D01*
X73430086Y-57936862D01*
X73461573Y-57915822D01*
X73557444Y-57851764D01*
X73557451Y-57851758D01*
X73557458Y-57851754D01*
X73557466Y-57851748D01*
X73696748Y-57712466D01*
X73696751Y-57712462D01*
X73806185Y-57548684D01*
X73806192Y-57548671D01*
X73807779Y-57544841D01*
X73881569Y-57366693D01*
X73881577Y-57366656D01*
X73918479Y-57181135D01*
X73919203Y-57178401D01*
X73920000Y-57173493D01*
X73920000Y-56775000D01*
X73344000Y-56775000D01*
X73276961Y-56755315D01*
X73231206Y-56702511D01*
X73220000Y-56651000D01*
X73220000Y-56399000D01*
X73239685Y-56331961D01*
X73292489Y-56286206D01*
X73344000Y-56275000D01*
X73920000Y-56275000D01*
X73920000Y-55876506D01*
X73919909Y-55875768D01*
X73919408Y-55873533D01*
X73881577Y-55683343D01*
X73881576Y-55683342D01*
X73881572Y-55683318D01*
X73881569Y-55683306D01*
X73841313Y-55586119D01*
X73806195Y-55501334D01*
X73806190Y-55501325D01*
X73806185Y-55501315D01*
X73696751Y-55337537D01*
X73696748Y-55337533D01*
X73696743Y-55337527D01*
X73557471Y-55198255D01*
X73557465Y-55198250D01*
X73557464Y-55198249D01*
X73393690Y-55088818D01*
X73393689Y-55088817D01*
X73393684Y-55088814D01*
X73393671Y-55088807D01*
X73393664Y-55088803D01*
X73211692Y-55013429D01*
X73211675Y-55013425D01*
X73170000Y-55005135D01*
X73170000Y-55569804D01*
X73150315Y-55636843D01*
X73097511Y-55682598D01*
X73028353Y-55692542D01*
X73013908Y-55689579D01*
X72959497Y-55675000D01*
X72959496Y-55675000D01*
X72880504Y-55675000D01*
X72880502Y-55675000D01*
X72826092Y-55689579D01*
X72756242Y-55687916D01*
X72698380Y-55648752D01*
X72670877Y-55584524D01*
X72670000Y-55569804D01*
X72670000Y-55005136D01*
X72669999Y-55005135D01*
X72628330Y-55013424D01*
X72628306Y-55013429D01*
X72446334Y-55088803D01*
X72446325Y-55088808D01*
X72446308Y-55088818D01*
X72282534Y-55198249D01*
X72282533Y-55198250D01*
X72282527Y-55198255D01*
X72143255Y-55337527D01*
X72143250Y-55337533D01*
X72143249Y-55337534D01*
X72033811Y-55501319D01*
X72033803Y-55501336D01*
X72022515Y-55528585D01*
X72022515Y-55528589D01*
X72004504Y-55558941D01*
X71995797Y-55569745D01*
X71938403Y-55609592D01*
X71868583Y-55612084D01*
X71868578Y-55612082D01*
X71868578Y-55612083D01*
X71868577Y-55612082D01*
X71862894Y-55610632D01*
X71817145Y-55586235D01*
X71816531Y-55587135D01*
X71815508Y-55586436D01*
X71815346Y-55586640D01*
X71812661Y-55584492D01*
X71812660Y-55584491D01*
X71728595Y-55535957D01*
X71692838Y-55515313D01*
X71692837Y-55515312D01*
X71692836Y-55515312D01*
X71669219Y-55508983D01*
X71669217Y-55508983D01*
X71607225Y-55492372D01*
X71559183Y-55479500D01*
X71559182Y-55479500D01*
X71420817Y-55479500D01*
X71287177Y-55515308D01*
X71287160Y-55515313D01*
X71287148Y-55515319D01*
X71167347Y-55584485D01*
X71167337Y-55584492D01*
X71167331Y-55584497D01*
X71167324Y-55584503D01*
X71069503Y-55682324D01*
X71069497Y-55682331D01*
X71069492Y-55682337D01*
X71069485Y-55682347D01*
X71000319Y-55802148D01*
X71000313Y-55802160D01*
X71000308Y-55802177D01*
X70972740Y-55905064D01*
X70964500Y-55935817D01*
X66235500Y-55935817D01*
X66199688Y-55802164D01*
X66160876Y-55734940D01*
X66130507Y-55682338D01*
X66130503Y-55682333D01*
X66130499Y-55682329D01*
X66130495Y-55682324D01*
X66032674Y-55584503D01*
X66032667Y-55584497D01*
X66032661Y-55584492D01*
X66032660Y-55584491D01*
X65948595Y-55535957D01*
X65912838Y-55515313D01*
X65912837Y-55515312D01*
X65912836Y-55515312D01*
X65889219Y-55508983D01*
X65889217Y-55508983D01*
X65827225Y-55492372D01*
X65779183Y-55479500D01*
X65779182Y-55479500D01*
X65640817Y-55479500D01*
X65507177Y-55515308D01*
X65507160Y-55515313D01*
X65507152Y-55515317D01*
X65384519Y-55586119D01*
X65379614Y-55589070D01*
X65358709Y-55600483D01*
X65290435Y-55615329D01*
X65224975Y-55590909D01*
X65220769Y-55587760D01*
X65180535Y-55535957D01*
X65177483Y-55528589D01*
X65166190Y-55501324D01*
X65166188Y-55501320D01*
X65166188Y-55501319D01*
X65056749Y-55337534D01*
X65056748Y-55337533D01*
X65056743Y-55337527D01*
X64917471Y-55198255D01*
X64917465Y-55198250D01*
X64917464Y-55198249D01*
X64753690Y-55088818D01*
X64753689Y-55088817D01*
X64753684Y-55088814D01*
X64753671Y-55088807D01*
X64753664Y-55088803D01*
X64571692Y-55013429D01*
X64571675Y-55013425D01*
X64530000Y-55005135D01*
X64530000Y-55569804D01*
X64510315Y-55636843D01*
X64457511Y-55682598D01*
X64388353Y-55692542D01*
X64373908Y-55689579D01*
X64319497Y-55675000D01*
X64319496Y-55675000D01*
X64240504Y-55675000D01*
X64240502Y-55675000D01*
X64186092Y-55689579D01*
X64116242Y-55687916D01*
X64058380Y-55648752D01*
X64030877Y-55584524D01*
X64030000Y-55569804D01*
X64030000Y-55005136D01*
X64029999Y-55005135D01*
X63988330Y-55013424D01*
X63988306Y-55013429D01*
X63806334Y-55088803D01*
X63806325Y-55088808D01*
X63806308Y-55088818D01*
X63642534Y-55198249D01*
X63642533Y-55198250D01*
X63642527Y-55198255D01*
X63503255Y-55337527D01*
X63503250Y-55337533D01*
X63503249Y-55337534D01*
X63393818Y-55501308D01*
X63393808Y-55501325D01*
X63393803Y-55501334D01*
X63318430Y-55683304D01*
X63318421Y-55683343D01*
X63280000Y-55876500D01*
X60979522Y-55876500D01*
X60985544Y-55846227D01*
X60985545Y-55846224D01*
X61003482Y-55756043D01*
X61004204Y-55753320D01*
X61005000Y-55748418D01*
X61005000Y-55695000D01*
X60404000Y-55695000D01*
X60336961Y-55675315D01*
X60291206Y-55622511D01*
X60280000Y-55571000D01*
X60280000Y-55319000D01*
X60299685Y-55251961D01*
X60352489Y-55206206D01*
X60404000Y-55195000D01*
X61005000Y-55195000D01*
X61005000Y-55141578D01*
X61004909Y-55140843D01*
X61004408Y-55138608D01*
X60964656Y-54938757D01*
X60964654Y-54938752D01*
X60964651Y-54938733D01*
X60964649Y-54938725D01*
X60885499Y-54747641D01*
X60885494Y-54747631D01*
X60770589Y-54575664D01*
X60770586Y-54575660D01*
X60770583Y-54575657D01*
X60770581Y-54575654D01*
X60624341Y-54429414D01*
X60624336Y-54429411D01*
X60556034Y-54383773D01*
X85949499Y-54383773D01*
X85982178Y-54548056D01*
X85982184Y-54548083D01*
X86046292Y-54702856D01*
X86139374Y-54842164D01*
X86257834Y-54960624D01*
X86257837Y-54960626D01*
X86336860Y-55013427D01*
X86397137Y-55053703D01*
X86551918Y-55117816D01*
X86671384Y-55141579D01*
X86713257Y-55149908D01*
X86715492Y-55150409D01*
X86716230Y-55150500D01*
X86883768Y-55150500D01*
X86887889Y-55150500D01*
X86895742Y-55148117D01*
X87048082Y-55117816D01*
X87202863Y-55053703D01*
X87342162Y-54960626D01*
X87460626Y-54842162D01*
X87553703Y-54702863D01*
X87617816Y-54548082D01*
X87650500Y-54383767D01*
X87650500Y-54216233D01*
X87617816Y-54051918D01*
X87553703Y-53897137D01*
X87522537Y-53850494D01*
X87468785Y-53770048D01*
X87460627Y-53757838D01*
X87460623Y-53757833D01*
X87342164Y-53639374D01*
X87202856Y-53546292D01*
X87048083Y-53482184D01*
X87048056Y-53482178D01*
X86883773Y-53449500D01*
X86883771Y-53449500D01*
X86883767Y-53449500D01*
X86716233Y-53449500D01*
X86716228Y-53449500D01*
X86716226Y-53449500D01*
X86551942Y-53482178D01*
X86551915Y-53482184D01*
X86397142Y-53546292D01*
X86257834Y-53639374D01*
X86139374Y-53757834D01*
X86046292Y-53897142D01*
X85982184Y-54051915D01*
X85982178Y-54051942D01*
X85949500Y-54216225D01*
X85949500Y-54216228D01*
X85949500Y-54383771D01*
X85949500Y-54383773D01*
X85949499Y-54383773D01*
X60556034Y-54383773D01*
X60452369Y-54314506D01*
X60452365Y-54314504D01*
X60452358Y-54314500D01*
X60261272Y-54235349D01*
X60261267Y-54235347D01*
X60261266Y-54235346D01*
X60261262Y-54235345D01*
X60205000Y-54224154D01*
X60205000Y-54813923D01*
X60185315Y-54880962D01*
X60132511Y-54926717D01*
X60063353Y-54936661D01*
X60048908Y-54933698D01*
X59997787Y-54920000D01*
X59997785Y-54920000D01*
X59912215Y-54920000D01*
X59912213Y-54920000D01*
X59861093Y-54933697D01*
X59791244Y-54932035D01*
X59733382Y-54892873D01*
X59705877Y-54828645D01*
X59705000Y-54813923D01*
X59705000Y-54224156D01*
X59704998Y-54224154D01*
X59648736Y-54235345D01*
X59648735Y-54235345D01*
X59457635Y-54314502D01*
X59457632Y-54314504D01*
X59285657Y-54429415D01*
X59285654Y-54429417D01*
X59139417Y-54575654D01*
X59139415Y-54575657D01*
X59024504Y-54747632D01*
X59024502Y-54747635D01*
X58945350Y-54938725D01*
X58945342Y-54938758D01*
X58905000Y-55141574D01*
X58905000Y-55141578D01*
X58905000Y-55141579D01*
X58905000Y-55195000D01*
X59506000Y-55195000D01*
X59573039Y-55214685D01*
X59618794Y-55267489D01*
X59630000Y-55319000D01*
X59630000Y-55571000D01*
X59610315Y-55638039D01*
X59557511Y-55683794D01*
X59506000Y-55695000D01*
X58905000Y-55695000D01*
X58905000Y-55748424D01*
X58945342Y-55951240D01*
X58945346Y-55951259D01*
X58945348Y-55951266D01*
X58945350Y-55951274D01*
X59024500Y-56142358D01*
X59024505Y-56142368D01*
X59139410Y-56314335D01*
X59139413Y-56314339D01*
X59139415Y-56314341D01*
X59139417Y-56314344D01*
X59285654Y-56460581D01*
X59285660Y-56460586D01*
X59285664Y-56460589D01*
X59386072Y-56527680D01*
X59412321Y-56551258D01*
X59421226Y-56561913D01*
X59449111Y-56625973D01*
X59437936Y-56694943D01*
X59437931Y-56694952D01*
X59435670Y-56699677D01*
X59392708Y-56749255D01*
X59257836Y-56839374D01*
X59257831Y-56839377D01*
X59139374Y-56957834D01*
X59046292Y-57097142D01*
X58982184Y-57251915D01*
X58982178Y-57251942D01*
X58949500Y-57416225D01*
X58949500Y-57482501D01*
X58949499Y-57482507D01*
X58949500Y-57482510D01*
X58944475Y-57517445D01*
X58940070Y-57532443D01*
X58902304Y-57591207D01*
X58892010Y-57600128D01*
X58858253Y-57620981D01*
X58797144Y-57646292D01*
X58797126Y-57646302D01*
X58657841Y-57739369D01*
X58657833Y-57739375D01*
X58539374Y-57857834D01*
X58446292Y-57997142D01*
X58382184Y-58151915D01*
X58382178Y-58151942D01*
X58349500Y-58316225D01*
X58349500Y-58316228D01*
X58349500Y-58483771D01*
X58349500Y-58483773D01*
X58349499Y-58483773D01*
X50593608Y-58483773D01*
X50593608Y-55141574D01*
X54065000Y-55141574D01*
X54065000Y-55141578D01*
X54065000Y-55141579D01*
X54065000Y-55195000D01*
X54666000Y-55195000D01*
X54733039Y-55214685D01*
X54778794Y-55267489D01*
X54790000Y-55319000D01*
X54790000Y-55571000D01*
X54770315Y-55638039D01*
X54717511Y-55683794D01*
X54666000Y-55695000D01*
X54065000Y-55695000D01*
X54065000Y-55748424D01*
X54105342Y-55951240D01*
X54105346Y-55951259D01*
X54105348Y-55951266D01*
X54105350Y-55951274D01*
X54184500Y-56142358D01*
X54184505Y-56142368D01*
X54299410Y-56314335D01*
X54299413Y-56314339D01*
X54299415Y-56314341D01*
X54299417Y-56314344D01*
X54445654Y-56460581D01*
X54445657Y-56460583D01*
X54445660Y-56460586D01*
X54445664Y-56460589D01*
X54617631Y-56575494D01*
X54617641Y-56575499D01*
X54799916Y-56651000D01*
X54804660Y-56652965D01*
X54807222Y-56654134D01*
X54808722Y-56654648D01*
X54808723Y-56654648D01*
X54808725Y-56654649D01*
X54865000Y-56665842D01*
X54865000Y-56665841D01*
X54865000Y-56076076D01*
X54884685Y-56009037D01*
X54937489Y-55963282D01*
X55006647Y-55953338D01*
X55021084Y-55956299D01*
X55072213Y-55970000D01*
X55157786Y-55970000D01*
X55157787Y-55970000D01*
X55208906Y-55956302D01*
X55278754Y-55957963D01*
X55336617Y-55997124D01*
X55364123Y-56061352D01*
X55365000Y-56076076D01*
X55365000Y-56665841D01*
X55365000Y-56665842D01*
X55421274Y-56654649D01*
X55421275Y-56654648D01*
X55421277Y-56654648D01*
X55422772Y-56654135D01*
X55425326Y-56652970D01*
X55612358Y-56575499D01*
X55612368Y-56575494D01*
X55784335Y-56460589D01*
X55784339Y-56460586D01*
X55930586Y-56314339D01*
X55930589Y-56314335D01*
X56045494Y-56142368D01*
X56045499Y-56142358D01*
X56124649Y-55951274D01*
X56124651Y-55951266D01*
X56163483Y-55756039D01*
X56164204Y-55753318D01*
X56165000Y-55748418D01*
X56165000Y-55695000D01*
X55564000Y-55695000D01*
X55496961Y-55675315D01*
X55451206Y-55622511D01*
X55440000Y-55571000D01*
X55440000Y-55319000D01*
X55459685Y-55251961D01*
X55512489Y-55206206D01*
X55564000Y-55195000D01*
X56165000Y-55195000D01*
X56165000Y-55141578D01*
X56164909Y-55140843D01*
X56164408Y-55138608D01*
X56124656Y-54938757D01*
X56124654Y-54938752D01*
X56124651Y-54938733D01*
X56124649Y-54938725D01*
X56045499Y-54747641D01*
X56045494Y-54747631D01*
X55930589Y-54575664D01*
X55930586Y-54575660D01*
X55930583Y-54575657D01*
X55930581Y-54575654D01*
X55784344Y-54429417D01*
X55784341Y-54429415D01*
X55784340Y-54429414D01*
X55784339Y-54429413D01*
X55784335Y-54429410D01*
X55612368Y-54314505D01*
X55612366Y-54314504D01*
X55612363Y-54314502D01*
X55421263Y-54235345D01*
X55421261Y-54235345D01*
X55365000Y-54224154D01*
X55365000Y-54813923D01*
X55345315Y-54880962D01*
X55292511Y-54926717D01*
X55223353Y-54936661D01*
X55208908Y-54933698D01*
X55157787Y-54920000D01*
X55157785Y-54920000D01*
X55072215Y-54920000D01*
X55072213Y-54920000D01*
X55021093Y-54933697D01*
X54951244Y-54932035D01*
X54893382Y-54892873D01*
X54865877Y-54828645D01*
X54865000Y-54813923D01*
X54865000Y-54224156D01*
X54864998Y-54224154D01*
X54808736Y-54235345D01*
X54808735Y-54235345D01*
X54617635Y-54314502D01*
X54617632Y-54314504D01*
X54445657Y-54429415D01*
X54445654Y-54429417D01*
X54299417Y-54575654D01*
X54299415Y-54575657D01*
X54184504Y-54747632D01*
X54184502Y-54747635D01*
X54105350Y-54938725D01*
X54105342Y-54938758D01*
X54065000Y-55141574D01*
X50593608Y-55141574D01*
X50593608Y-52177526D01*
X53630000Y-52177526D01*
X53630000Y-52195000D01*
X54331000Y-52195000D01*
X54398039Y-52214685D01*
X54443794Y-52267489D01*
X54455000Y-52319000D01*
X54455000Y-52571000D01*
X54435315Y-52638039D01*
X54382511Y-52683794D01*
X54331000Y-52695000D01*
X53630000Y-52695000D01*
X53630000Y-52712472D01*
X53658933Y-52895148D01*
X53716081Y-53071036D01*
X53716082Y-53071039D01*
X53716083Y-53071040D01*
X53716084Y-53071043D01*
X53800052Y-53235837D01*
X53908754Y-53385454D01*
X53908758Y-53385459D01*
X53908763Y-53385465D01*
X54039533Y-53516235D01*
X54039537Y-53516238D01*
X54039540Y-53516241D01*
X54039545Y-53516245D01*
X54189162Y-53624947D01*
X54353956Y-53708915D01*
X54353959Y-53708916D01*
X54353961Y-53708916D01*
X54353962Y-53708917D01*
X54353982Y-53708924D01*
X54529831Y-53766060D01*
X54529837Y-53766061D01*
X54529845Y-53766064D01*
X54529858Y-53766067D01*
X54555000Y-53770049D01*
X54555000Y-53151958D01*
X54574685Y-53084919D01*
X54627489Y-53039164D01*
X54696647Y-53029220D01*
X54711082Y-53032181D01*
X54758922Y-53045000D01*
X54851076Y-53045000D01*
X54851078Y-53045000D01*
X54898907Y-53032184D01*
X54968755Y-53033845D01*
X55026618Y-53073007D01*
X55054123Y-53137235D01*
X55055000Y-53151958D01*
X55055000Y-53770047D01*
X55055000Y-53770048D01*
X55080141Y-53766067D01*
X55080154Y-53766064D01*
X55080164Y-53766060D01*
X55080167Y-53766060D01*
X55256016Y-53708924D01*
X55256020Y-53708922D01*
X55256040Y-53708916D01*
X55256043Y-53708915D01*
X55420837Y-53624947D01*
X55570454Y-53516245D01*
X55570459Y-53516241D01*
X55701241Y-53385459D01*
X55701245Y-53385454D01*
X55809947Y-53235837D01*
X55893915Y-53071043D01*
X55893916Y-53071040D01*
X55951066Y-52895147D01*
X55980000Y-52712473D01*
X55980000Y-52695000D01*
X55279000Y-52695000D01*
X55211961Y-52675315D01*
X55166206Y-52622511D01*
X55155000Y-52571000D01*
X55155000Y-52319000D01*
X55174685Y-52251961D01*
X55227489Y-52206206D01*
X55279000Y-52195000D01*
X55980000Y-52195000D01*
X55980000Y-52177527D01*
X55980000Y-52177526D01*
X59090000Y-52177526D01*
X59090000Y-52195000D01*
X59791000Y-52195000D01*
X59858039Y-52214685D01*
X59903794Y-52267489D01*
X59915000Y-52319000D01*
X59915000Y-52571000D01*
X59895315Y-52638039D01*
X59842511Y-52683794D01*
X59791000Y-52695000D01*
X59090000Y-52695000D01*
X59090000Y-52712472D01*
X59118933Y-52895148D01*
X59176081Y-53071036D01*
X59176082Y-53071039D01*
X59176083Y-53071040D01*
X59176084Y-53071043D01*
X59260052Y-53235837D01*
X59368754Y-53385454D01*
X59368758Y-53385459D01*
X59368763Y-53385465D01*
X59499533Y-53516235D01*
X59499537Y-53516238D01*
X59499540Y-53516241D01*
X59499545Y-53516245D01*
X59649162Y-53624947D01*
X59813956Y-53708915D01*
X59813959Y-53708916D01*
X59813961Y-53708916D01*
X59813962Y-53708917D01*
X59813982Y-53708924D01*
X59989831Y-53766060D01*
X59989837Y-53766061D01*
X59989845Y-53766064D01*
X59989858Y-53766067D01*
X60015000Y-53770049D01*
X60015000Y-53151958D01*
X60034685Y-53084919D01*
X60087489Y-53039164D01*
X60156647Y-53029220D01*
X60171082Y-53032181D01*
X60218922Y-53045000D01*
X60311076Y-53045000D01*
X60311078Y-53045000D01*
X60358907Y-53032184D01*
X60428755Y-53033845D01*
X60486618Y-53073007D01*
X60514123Y-53137235D01*
X60515000Y-53151958D01*
X60515000Y-53770047D01*
X60515000Y-53770048D01*
X60540141Y-53766067D01*
X60540154Y-53766064D01*
X60540164Y-53766060D01*
X60540167Y-53766060D01*
X60716016Y-53708924D01*
X60716020Y-53708922D01*
X60716040Y-53708916D01*
X60716043Y-53708915D01*
X60880837Y-53624947D01*
X61030454Y-53516245D01*
X61030459Y-53516241D01*
X61161241Y-53385459D01*
X61161245Y-53385454D01*
X61269947Y-53235837D01*
X61353915Y-53071043D01*
X61353916Y-53071040D01*
X61411066Y-52895147D01*
X61440000Y-52712473D01*
X61440000Y-52695000D01*
X60739000Y-52695000D01*
X60671961Y-52675315D01*
X60626206Y-52622511D01*
X60615000Y-52571000D01*
X60615000Y-52319000D01*
X60634685Y-52251961D01*
X60687489Y-52206206D01*
X60739000Y-52195000D01*
X61440000Y-52195000D01*
X61440000Y-52177527D01*
X61432783Y-52131961D01*
X61411066Y-51994852D01*
X61366840Y-51858735D01*
X61356366Y-51826500D01*
X63280000Y-51826500D01*
X63280000Y-51826504D01*
X63280000Y-52075000D01*
X63856000Y-52075000D01*
X63923039Y-52094685D01*
X63968794Y-52147489D01*
X63980000Y-52199000D01*
X63980000Y-52451000D01*
X63960315Y-52518039D01*
X63907511Y-52563794D01*
X63856000Y-52575000D01*
X63280000Y-52575000D01*
X63280000Y-52823498D01*
X63318421Y-53016655D01*
X63318430Y-53016694D01*
X63393803Y-53198664D01*
X63393808Y-53198673D01*
X63393818Y-53198690D01*
X63503249Y-53362464D01*
X63503250Y-53362465D01*
X63503255Y-53362471D01*
X63642527Y-53501743D01*
X63642533Y-53501748D01*
X63642537Y-53501751D01*
X63806315Y-53611185D01*
X63806328Y-53611192D01*
X63874367Y-53639374D01*
X63988302Y-53686567D01*
X63988310Y-53686570D01*
X64030000Y-53694862D01*
X64030000Y-53130195D01*
X64049685Y-53063156D01*
X64102489Y-53017401D01*
X64171647Y-53007457D01*
X64186073Y-53010415D01*
X64240504Y-53025000D01*
X64319493Y-53025000D01*
X64319496Y-53025000D01*
X64373910Y-53010420D01*
X64443756Y-53012083D01*
X64501619Y-53051245D01*
X64529123Y-53115473D01*
X64530000Y-53130195D01*
X64530000Y-53694861D01*
X64530000Y-53694862D01*
X64571690Y-53686569D01*
X64571692Y-53686569D01*
X64753671Y-53611192D01*
X64753684Y-53611185D01*
X64917462Y-53501751D01*
X64917466Y-53501748D01*
X65056748Y-53362466D01*
X65056751Y-53362462D01*
X65166185Y-53198684D01*
X65166192Y-53198671D01*
X65241569Y-53016693D01*
X65241572Y-53016681D01*
X65278480Y-52831130D01*
X65279203Y-52828401D01*
X65280000Y-52823493D01*
X65280000Y-52575000D01*
X64704000Y-52575000D01*
X64636961Y-52555315D01*
X64591206Y-52502511D01*
X64580000Y-52451000D01*
X64580000Y-52199000D01*
X64599685Y-52131961D01*
X64652489Y-52086206D01*
X64704000Y-52075000D01*
X65280000Y-52075000D01*
X65280000Y-51829121D01*
X65280000Y-51826508D01*
X65279999Y-51826504D01*
X65279998Y-51826500D01*
X71920000Y-51826500D01*
X71920000Y-51826504D01*
X71920000Y-52075000D01*
X72496000Y-52075000D01*
X72563039Y-52094685D01*
X72608794Y-52147489D01*
X72620000Y-52199000D01*
X72620000Y-52451000D01*
X72600315Y-52518039D01*
X72547511Y-52563794D01*
X72496000Y-52575000D01*
X71920000Y-52575000D01*
X71920000Y-52823498D01*
X71958421Y-53016655D01*
X71958430Y-53016694D01*
X72033803Y-53198664D01*
X72033808Y-53198673D01*
X72033818Y-53198690D01*
X72143249Y-53362464D01*
X72143250Y-53362465D01*
X72143255Y-53362471D01*
X72282527Y-53501743D01*
X72282533Y-53501748D01*
X72282537Y-53501751D01*
X72446315Y-53611185D01*
X72446328Y-53611192D01*
X72514367Y-53639374D01*
X72628302Y-53686567D01*
X72628310Y-53686570D01*
X72670000Y-53694862D01*
X72670000Y-53130195D01*
X72689685Y-53063156D01*
X72742489Y-53017401D01*
X72811647Y-53007457D01*
X72826073Y-53010415D01*
X72880504Y-53025000D01*
X72959493Y-53025000D01*
X72959496Y-53025000D01*
X73013910Y-53010420D01*
X73083756Y-53012083D01*
X73141619Y-53051245D01*
X73169123Y-53115473D01*
X73170000Y-53130195D01*
X73170000Y-53694861D01*
X73170000Y-53694862D01*
X73211690Y-53686569D01*
X73211692Y-53686569D01*
X73393671Y-53611192D01*
X73393684Y-53611185D01*
X73557462Y-53501751D01*
X73557466Y-53501748D01*
X73696748Y-53362466D01*
X73696751Y-53362462D01*
X73806185Y-53198684D01*
X73806192Y-53198671D01*
X73881569Y-53016693D01*
X73881572Y-53016681D01*
X73918480Y-52831130D01*
X73919203Y-52828401D01*
X73920000Y-52823493D01*
X73920000Y-52575000D01*
X73344000Y-52575000D01*
X73335314Y-52572449D01*
X73326353Y-52573738D01*
X73302312Y-52562759D01*
X73276961Y-52555315D01*
X73271033Y-52548474D01*
X73262797Y-52544713D01*
X73248507Y-52522478D01*
X73231206Y-52502511D01*
X73228918Y-52491996D01*
X73225023Y-52485935D01*
X73220000Y-52451000D01*
X73220000Y-52383773D01*
X84049499Y-52383773D01*
X84082178Y-52548056D01*
X84082184Y-52548083D01*
X84146292Y-52702856D01*
X84239374Y-52842164D01*
X84357834Y-52960624D01*
X84357837Y-52960626D01*
X84441730Y-53016681D01*
X84497137Y-53053703D01*
X84651918Y-53117816D01*
X84816228Y-53150499D01*
X84816232Y-53150500D01*
X84816233Y-53150500D01*
X84983768Y-53150500D01*
X84983769Y-53150499D01*
X85148082Y-53117816D01*
X85302863Y-53053703D01*
X85442162Y-52960626D01*
X85560626Y-52842162D01*
X85653703Y-52702863D01*
X85717816Y-52548082D01*
X85750500Y-52383767D01*
X85750500Y-52216233D01*
X85717816Y-52051918D01*
X85653703Y-51897137D01*
X85606510Y-51826508D01*
X85560626Y-51757837D01*
X85560624Y-51757834D01*
X85442164Y-51639374D01*
X85302856Y-51546292D01*
X85148083Y-51482184D01*
X85148056Y-51482178D01*
X84983773Y-51449500D01*
X84983771Y-51449500D01*
X84983767Y-51449500D01*
X84816233Y-51449500D01*
X84816228Y-51449500D01*
X84816226Y-51449500D01*
X84651942Y-51482178D01*
X84651915Y-51482184D01*
X84497142Y-51546292D01*
X84357834Y-51639374D01*
X84239374Y-51757834D01*
X84146292Y-51897142D01*
X84082184Y-52051915D01*
X84082178Y-52051942D01*
X84049500Y-52216225D01*
X84049500Y-52216228D01*
X84049500Y-52383771D01*
X84049500Y-52383773D01*
X84049499Y-52383773D01*
X73220000Y-52383773D01*
X73220000Y-52199000D01*
X73239685Y-52131961D01*
X73292489Y-52086206D01*
X73344000Y-52075000D01*
X73920000Y-52075000D01*
X73920000Y-51826506D01*
X73919909Y-51825768D01*
X73919408Y-51823533D01*
X73915737Y-51805080D01*
X73881572Y-51633318D01*
X73881569Y-51633306D01*
X73840653Y-51534524D01*
X73806195Y-51451334D01*
X73806190Y-51451325D01*
X73806185Y-51451315D01*
X73696751Y-51287537D01*
X73696748Y-51287533D01*
X73696743Y-51287527D01*
X73557471Y-51148255D01*
X73557465Y-51148250D01*
X73557464Y-51148249D01*
X73393690Y-51038818D01*
X73393689Y-51038817D01*
X73393684Y-51038814D01*
X73393671Y-51038807D01*
X73393664Y-51038803D01*
X73211692Y-50963429D01*
X73211675Y-50963425D01*
X73170000Y-50955135D01*
X73170000Y-51519804D01*
X73150315Y-51586843D01*
X73097511Y-51632598D01*
X73028353Y-51642542D01*
X73013908Y-51639579D01*
X72959497Y-51625000D01*
X72959496Y-51625000D01*
X72880504Y-51625000D01*
X72880502Y-51625000D01*
X72826092Y-51639579D01*
X72756242Y-51637916D01*
X72698380Y-51598752D01*
X72670877Y-51534524D01*
X72670000Y-51519804D01*
X72670000Y-50955136D01*
X72669999Y-50955135D01*
X72628330Y-50963424D01*
X72628306Y-50963429D01*
X72446334Y-51038803D01*
X72446325Y-51038808D01*
X72446308Y-51038818D01*
X72282534Y-51148249D01*
X72282533Y-51148250D01*
X72282527Y-51148255D01*
X72143255Y-51287527D01*
X72143250Y-51287533D01*
X72143249Y-51287534D01*
X72033818Y-51451308D01*
X72033808Y-51451325D01*
X72033803Y-51451334D01*
X71958430Y-51633304D01*
X71958421Y-51633343D01*
X71920000Y-51826500D01*
X65279998Y-51826500D01*
X65241572Y-51633318D01*
X65241569Y-51633306D01*
X65200653Y-51534524D01*
X65166195Y-51451334D01*
X65166190Y-51451325D01*
X65166185Y-51451315D01*
X65056751Y-51287537D01*
X65056748Y-51287533D01*
X65056743Y-51287527D01*
X64917471Y-51148255D01*
X64917465Y-51148250D01*
X64917464Y-51148249D01*
X64753690Y-51038818D01*
X64753689Y-51038817D01*
X64753684Y-51038814D01*
X64753671Y-51038807D01*
X64753664Y-51038803D01*
X64571692Y-50963429D01*
X64571675Y-50963425D01*
X64530000Y-50955135D01*
X64530000Y-51519804D01*
X64510315Y-51586843D01*
X64457511Y-51632598D01*
X64388353Y-51642542D01*
X64373908Y-51639579D01*
X64319497Y-51625000D01*
X64319496Y-51625000D01*
X64240504Y-51625000D01*
X64240502Y-51625000D01*
X64186092Y-51639579D01*
X64116242Y-51637916D01*
X64058380Y-51598752D01*
X64030877Y-51534524D01*
X64030000Y-51519804D01*
X64030000Y-50955136D01*
X64029999Y-50955135D01*
X63988330Y-50963424D01*
X63988306Y-50963429D01*
X63806334Y-51038803D01*
X63806325Y-51038808D01*
X63806308Y-51038818D01*
X63642534Y-51148249D01*
X63642533Y-51148250D01*
X63642527Y-51148255D01*
X63503255Y-51287527D01*
X63503250Y-51287533D01*
X63503249Y-51287534D01*
X63393818Y-51451308D01*
X63393808Y-51451325D01*
X63393803Y-51451334D01*
X63318430Y-51633304D01*
X63318421Y-51633343D01*
X63280000Y-51826500D01*
X61356366Y-51826500D01*
X61353916Y-51818959D01*
X61353915Y-51818956D01*
X61269947Y-51654162D01*
X61161245Y-51504545D01*
X61161241Y-51504540D01*
X61161238Y-51504537D01*
X61161235Y-51504533D01*
X61030465Y-51373763D01*
X61030460Y-51373759D01*
X61030459Y-51373758D01*
X61030454Y-51373754D01*
X60880837Y-51265052D01*
X60716043Y-51181084D01*
X60716039Y-51181082D01*
X60716036Y-51181081D01*
X60716037Y-51181081D01*
X60540144Y-51123931D01*
X60515000Y-51119950D01*
X60515000Y-51738041D01*
X60495315Y-51805080D01*
X60442511Y-51850835D01*
X60373353Y-51860779D01*
X60358911Y-51857816D01*
X60311078Y-51845000D01*
X60311077Y-51845000D01*
X60218922Y-51845000D01*
X60171092Y-51857815D01*
X60101243Y-51856153D01*
X60043381Y-51816990D01*
X60015877Y-51752762D01*
X60015000Y-51738041D01*
X60015000Y-51119950D01*
X60014999Y-51119950D01*
X60014998Y-51119950D01*
X59989854Y-51123931D01*
X59989853Y-51123931D01*
X59813962Y-51181081D01*
X59649158Y-51265054D01*
X59499562Y-51373741D01*
X59499533Y-51373763D01*
X59368763Y-51504533D01*
X59368741Y-51504562D01*
X59260054Y-51654158D01*
X59260052Y-51654162D01*
X59176084Y-51818956D01*
X59176083Y-51818959D01*
X59118933Y-51994850D01*
X59109893Y-52051925D01*
X59090000Y-52177526D01*
X55980000Y-52177526D01*
X55972783Y-52131961D01*
X55951066Y-51994852D01*
X55893916Y-51818959D01*
X55893915Y-51818956D01*
X55809947Y-51654162D01*
X55701245Y-51504545D01*
X55701241Y-51504540D01*
X55701238Y-51504537D01*
X55701235Y-51504533D01*
X55570465Y-51373763D01*
X55570460Y-51373759D01*
X55570459Y-51373758D01*
X55570454Y-51373754D01*
X55420837Y-51265052D01*
X55256043Y-51181084D01*
X55256039Y-51181082D01*
X55256036Y-51181081D01*
X55256037Y-51181081D01*
X55080144Y-51123931D01*
X55055000Y-51119950D01*
X55055000Y-51738041D01*
X55035315Y-51805080D01*
X54982511Y-51850835D01*
X54913353Y-51860779D01*
X54898911Y-51857816D01*
X54851078Y-51845000D01*
X54851077Y-51845000D01*
X54758922Y-51845000D01*
X54711092Y-51857815D01*
X54641243Y-51856153D01*
X54583381Y-51816990D01*
X54555877Y-51752762D01*
X54555000Y-51738041D01*
X54555000Y-51119950D01*
X54554999Y-51119950D01*
X54554998Y-51119950D01*
X54529854Y-51123931D01*
X54529853Y-51123931D01*
X54353962Y-51181081D01*
X54189158Y-51265054D01*
X54039562Y-51373741D01*
X54039533Y-51373763D01*
X53908763Y-51504533D01*
X53908741Y-51504562D01*
X53800054Y-51654158D01*
X53800052Y-51654162D01*
X53716084Y-51818956D01*
X53716083Y-51818959D01*
X53658933Y-51994850D01*
X53649893Y-52051925D01*
X53630000Y-52177526D01*
X50593608Y-52177526D01*
X50593608Y-50741599D01*
X50598631Y-50706663D01*
X50603035Y-50691665D01*
X50640761Y-50632930D01*
X50640809Y-50632888D01*
X50642128Y-50631744D01*
X50697027Y-50604250D01*
X50704607Y-50602602D01*
X50730961Y-50599772D01*
X88961010Y-50607197D01*
G37*
%TD.AperFunction*%
%TD*%
M02*
