M48
; DRILL file KiCad 10.0.1 date 2026-05-08T16:25:09
; FORMAT={-:-/ absolute / metric / decimal}
; #@! TF.CreationDate,2026-05-08T16:25:09+02:00
; #@! TF.GenerationSoftware,Kicad,Pcbnew,10.0.1
; #@! TF.FileFunction,Plated,1,4,PTH
FMAT,2
METRIC
; #@! TA.AperFunction,Plated,PTH,ViaDrill
T1C0.300
; #@! TA.AperFunction,Plated,PTH,ComponentDrill
T2C0.600
; #@! TA.AperFunction,Plated,PTH,ComponentDrill
T3C0.650
; #@! TA.AperFunction,Plated,PTH,ComponentDrill
T4C0.700
; #@! TA.AperFunction,Plated,PTH,ComponentDrill
T5C0.889
; #@! TA.AperFunction,Plated,PTH,ComponentDrill
T6C1.000
%
G90
G05
T1
X53.3Y-62.7
X54.5Y-69.0
X54.9Y-76.0
X55.3Y-57.9
X57.3Y-119.5
X57.5Y-85.6
X57.7Y-101.8
X58.2Y-138.6
X58.8Y-66.2
X59.2Y-58.4
X59.8Y-57.5
X60.7Y-58.4
X61.237Y-64.089
X61.5Y-63.1
X62.0Y-76.1
X62.2Y-60.5
X62.6Y-65.4
X62.6Y-67.1
X64.0Y-65.1
X64.3Y-58.8
X64.4Y-59.7
X64.6Y-70.4
X65.1Y-59.0
X65.7Y-129.2
X66.7Y-53.9
X68.0Y-110.6
X68.8Y-69.0
X68.9Y-93.4
X69.5Y-76.8
X70.0Y-53.8
X72.2Y-59.2
X72.6Y-139.8
X73.0Y-58.9
X73.0Y-59.9
X73.6Y-62.7
X73.9Y-74.9
X75.2Y-68.5
X76.0Y-72.9
X77.7Y-53.1
X78.8Y-85.0
X78.9Y-64.0
X80.4Y-76.8
X80.4Y-117.2
X80.7Y-65.9
X81.4Y-117.1
X82.0Y-111.0
X83.6Y-68.7
X84.9Y-52.3
X85.1Y-95.3
X86.8Y-54.3
X87.2Y-78.8
X88.4Y-75.0
X88.4Y-77.0
X88.4Y-114.3
X90.0Y-111.2
X90.1Y-105.6
X90.1Y-112.3
X90.2Y-117.5
X90.6Y-138.6
X90.9Y-70.3
X91.2Y-65.3
X91.4Y-77.2
X92.0Y-54.3
X92.1Y-98.2
X92.4Y-118.1
X92.9Y-109.2
X93.4Y-118.3
X93.5Y-77.0
X93.6Y-127.2
X93.7Y-123.2
X94.2Y-52.2
X94.2Y-98.2
X94.3Y-67.0
X94.7Y-127.6
X95.1Y-71.2
X95.1Y-73.9
X95.2Y-77.2
X95.2Y-110.9
X95.4Y-72.5
X95.4Y-101.3
X95.7Y-85.9
X95.9Y-102.3
X96.1Y-100.2
X96.1Y-113.2
X96.2Y-95.3
X96.8Y-114.7
X97.0Y-113.2
X97.3Y-112.2
X97.4Y-129.5
X97.7Y-80.6
X97.7Y-114.7
X97.8Y-111.3
X97.9Y-60.2
X97.9Y-71.3
X97.9Y-77.2
X97.9Y-113.2
X98.6Y-114.7
X98.8Y-113.2
X99.5Y-114.7
X99.7Y-113.2
X100.4Y-114.7
X100.6Y-113.2
X101.0Y-98.6
X101.1Y-67.4
X101.3Y-114.7
X101.5Y-113.2
X101.8Y-99.3
X102.0Y-94.9
X102.1Y-96.0
X102.2Y-114.7
X102.4Y-113.2
X102.8Y-64.4
X103.1Y-60.2
X103.1Y-94.9
X103.1Y-114.7
X103.3Y-113.2
X104.0Y-114.7
X104.1Y-86.9
X104.2Y-113.2
X104.4Y-54.5
X104.4Y-71.3
X104.9Y-114.7
X105.1Y-113.2
X105.3Y-87.0
X105.8Y-114.7
X106.0Y-113.2
X106.3Y-102.1
X106.4Y-87.7
X106.7Y-114.7
X106.9Y-113.2
X107.6Y-114.7
X107.8Y-113.2
X108.5Y-114.7
X108.7Y-113.2
X109.4Y-114.7
X109.6Y-113.2
X110.3Y-114.7
X110.5Y-113.2
X111.2Y-109.2
X111.2Y-114.7
X111.4Y-113.2
X111.7Y-122.8
X111.7Y-123.6
X111.7Y-124.4
X112.1Y-114.7
X112.1Y-125.1
X112.3Y-113.2
X112.8Y-125.8
X113.0Y-114.7
X113.1Y-122.9
X113.1Y-123.8
X113.1Y-137.9
X113.2Y-113.2
X113.5Y-124.5
X113.5Y-126.5
X113.6Y-54.5
X113.9Y-114.7
X114.0Y-56.2
X114.1Y-113.2
X114.1Y-118.1
X114.1Y-119.4
X114.1Y-125.1
X114.1Y-127.1
X114.2Y-57.6
X114.6Y-73.6
X114.6Y-101.4
X114.8Y-114.7
X114.8Y-125.8
X114.8Y-127.8
X114.9Y-58.7
X115.0Y-88.1
X115.0Y-113.2
X115.0Y-123.7
X115.1Y-59.9
X115.5Y-126.5
X115.5Y-128.3
X115.7Y-114.7
X115.9Y-113.2
X116.3Y-126.8
X116.4Y-61.0
X116.4Y-94.9
X116.4Y-97.2
X116.4Y-128.3
X116.6Y-114.7
X116.8Y-113.2
X117.2Y-126.8
X117.3Y-105.8
X117.3Y-128.3
X117.5Y-114.7
X117.7Y-113.2
X118.0Y-61.2
X118.1Y-62.4
X118.1Y-126.8
X118.2Y-128.3
X118.4Y-114.7
X118.6Y-113.2
X119.0Y-126.8
X119.1Y-128.3
X119.2Y-108.1
X119.3Y-114.7
X119.5Y-113.2
X119.9Y-126.8
X120.0Y-128.3
X120.2Y-114.7
X120.3Y-68.2
X120.4Y-113.2
X120.8Y-126.8
X120.9Y-69.8
X120.9Y-128.3
X121.0Y-66.6
X121.1Y-114.7
X121.3Y-113.2
X121.5Y-68.9
X121.7Y-67.4
X121.7Y-126.8
X121.8Y-128.3
X122.0Y-114.7
X122.1Y-119.8
X122.2Y-74.5
X122.2Y-113.2
X122.6Y-126.8
X122.7Y-128.3
X122.9Y-114.7
X122.9Y-120.8
X123.1Y-113.2
X123.2Y-84.0
X123.5Y-126.8
X123.6Y-128.3
X123.8Y-114.7
X124.0Y-113.2
X124.4Y-126.8
X124.5Y-128.3
X124.7Y-114.7
X124.9Y-113.2
X125.3Y-126.8
X125.4Y-128.3
X125.6Y-109.9
X125.6Y-114.7
X125.8Y-113.2
X125.9Y-126.2
X126.1Y-128.1
X126.5Y-114.7
X126.5Y-125.6
X126.6Y-95.7
X126.7Y-113.2
X126.7Y-127.5
X127.1Y-125.0
X127.3Y-126.9
X127.4Y-114.7
X127.5Y-104.0
X127.6Y-113.2
X127.7Y-106.0
X127.7Y-124.4
X127.9Y-126.3
X128.0Y-99.7
X128.2Y-70.8
X128.3Y-114.7
X128.3Y-123.8
X128.5Y-113.2
X128.5Y-125.7
X129.0Y-123.1
X129.1Y-125.1
X129.2Y-114.7
X129.4Y-113.2
X129.6Y-122.5
X129.7Y-124.5
X130.1Y-114.7
X130.1Y-104.1
X130.2Y-112.4
X130.2Y-121.9
X130.4Y-82.4
X130.4Y-123.8
X130.7Y-114.1
X130.8Y-121.3
X131.0Y-123.2
X131.3Y-113.5
X131.4Y-120.7
X131.6Y-122.6
X132.0Y-120.1
X132.2Y-122.0
X132.4Y-101.3
X132.4Y-106.0
X132.6Y-119.5
X132.8Y-121.4
X132.9Y-113.9
X133.0Y-88.5
X133.2Y-118.9
X133.4Y-120.8
X133.5Y-138.1
X133.7Y-104.5
X133.726Y-103.674
X133.8Y-118.3
X133.9Y-76.6
X134.0Y-120.2
X134.3Y-64.1
X134.4Y-117.7
X134.5Y-103.7
X134.5Y-104.5
X134.6Y-119.6
X134.8Y-114.0
X135.0Y-117.1
X135.2Y-119.0
X135.3Y-98.1
X135.6Y-116.5
X135.8Y-70.1
X135.8Y-118.4
X136.007Y-101.407
X136.2Y-115.9
X136.4Y-117.8
X136.8Y-115.3
X136.9Y-113.6
X136.9Y-114.5
X137.0Y-98.2
X137.0Y-117.2
X137.1Y-83.0
X137.4Y-100.6
X137.5Y-54.4
X137.6Y-116.6
X138.2Y-116.0
X138.3Y-113.4
X138.3Y-114.3
X138.3Y-115.2
X140.9Y-127.2
X141.1Y-72.8
X141.1Y-83.0
X141.1Y-93.6
X141.4Y-103.5
X141.8Y-102.2
X143.5Y-112.0
X144.1Y-58.7
X144.1Y-59.9
X146.8Y-53.5
X148.1Y-78.6
T5
X125.78Y-53.598
X125.78Y-56.139
X125.78Y-58.678
X125.78Y-61.218
X125.78Y-63.758
X125.78Y-66.298
X125.78Y-68.838
X141.02Y-53.598
X141.02Y-56.139
X141.02Y-58.678
X141.02Y-61.218
X141.02Y-63.758
X141.02Y-66.298
X141.02Y-68.838
T6
X85.82Y-72.492
X88.36Y-72.492
X90.9Y-72.492
X93.44Y-72.492
T2
G00X64.28Y-52.725
M15
G01X64.28Y-51.925
M16
G05
G00X64.28Y-57.075
M15
G01X64.28Y-55.975
M16
G05
G00X72.92Y-52.725
M15
G01X72.92Y-51.925
M16
G05
G00X72.92Y-57.075
M15
G01X72.92Y-55.975
M16
G05
T3
G00X55.115Y-55.245
M15
G01X55.115Y-55.645
M16
G05
G00X59.955Y-55.245
M15
G01X59.955Y-55.645
M16
G05
T4
G00X54.805Y-52.195
M15
G01X54.805Y-52.695
M16
G05
G00X60.265Y-52.195
M15
G01X60.265Y-52.695
M16
G05
M30
